<?xml version="1.0" encoding="UTF-8"?>
<svg id="Ebene_1" data-name="Ebene 1" xmlns="http://www.w3.org/2000/svg" viewBox="0 0 337.27 140.58">
  <defs>
    <style>
      .cls-1 {
        fill: #000;
        stroke-width: 0px;
      }
    </style>
  </defs>
  <g>
    <path class="cls-1" d="M15.21,14.98c-1.19,3.22-.3,6.98,2.59,9.81,4.03,3.95,8.13,7.82,12.19,11.73,6.31,6.09,12.63,12.17,18.91,18.28,1.93,1.87,2.46,3.73,1.76,5.85-9.53-9.17-19.02-18.29-28.81-27.71-.79,4.24.32,7.27,3.05,9.87,7.18,6.85,14.31,13.76,21.45,20.64,1.64,1.58,2.46,3.46,2.11,6.21-6.77-6.49-13.29-12.74-20.05-19.23-.75,3.83.16,6.69,2.65,9.08,4.99,4.81,9.98,9.63,14.97,14.43,1.04,1,2.12,1.95,3.36,3.09,2.12-5.67,4.25-10.96,6.06-16.35,1.15-3.42.26-6.65-2.35-9.18-12.63-12.23-25.31-24.41-37.9-36.54Z"/>
    <path class="cls-1" d="M62.08,38.05c-2.29-2.45-4.82-4.67-7.25-6.99-.17.07-.34.14-.51.21.16,1.03.32,2.07.44,2.82-2.61.97-5.17,1.93-7.78,2.91-.67-4.12-3.47-7.04-6.48-9.87-1.31-1.23-2.61-2.48-3.91-3.73-2.76-2.65-5.51-5.32-8.28-7.99-1.62,3.2-1.04,6.84,1.9,9.74.94.92,1.89,1.84,2.83,2.76,4.55,4.43,9.14,8.83,13.71,13.24,2.66,2.57,5.34,5.12,8,7.67.41-1.69.48-3.35,1.23-4.61.65-1.1,1.97-2.23,3.16-2.43.89-.15,2.03,1.14,3.13,1.82,1.11-1.14,1.3-3.98-.18-5.57Z"/>
    <path class="cls-1" d="M34.95,66.7c-.74,3.42-.3,5.86,1.74,7.9,2.01,2.01,4.12,3.93,6.12,5.96,1.26,1.29,2.17,2.76.95,5.41-1.51-1.92-2.78-3.54-4.05-5.16-.19.16-.37.31-.56.47,1.43,3.67,2.85,7.33,4.28,11,.16,0,.32,0,.47.01,1.13-3.15,2.36-6.27,3.37-9.46.6-1.9-.17-3.57-1.55-4.98-3.48-3.57-6.94-7.17-10.78-11.14Z"/>
  </g>
  <g>
    <polygon class="cls-1" points="42.4 108.12 44.99 105.55 48.35 106.64 46.58 103.82 48.02 101.69 44.81 101.84 42.72 99.78 42.37 102.31 39.13 103.34 42.22 104.7 42.4 108.12"/>
    <polygon class="cls-1" points="37.26 107.97 35.84 106.04 34.89 108.8 32.05 110.21 34.32 111.27 34.19 114.7 36.59 112.17 39.94 112.97 38.42 109.96 40.61 107.2 37.26 107.97"/>
    <polygon class="cls-1" points="31.44 106.84 32.96 104.05 35.54 103.48 34.22 102.14 35.51 100 33.34 101.5 32.31 101.14 31.62 102.86 29.91 104.67 31.36 104.44 31.44 106.84"/>
    <polygon class="cls-1" points="40.36 97.6 38.57 97.34 38.35 98.41 36.01 99.77 38.41 99.67 38.91 101.53 40.62 99.45 43.82 99.31 41.8 98.11 42.86 96.88 40.36 97.6"/>
    <polygon class="cls-1" points="29.56 112.27 28.51 110.77 28.49 113.48 27.69 114.96 28.77 115.62 29.47 118.45 29.98 116.02 32.08 116.24 30.58 113.78 31.26 110.79 29.56 112.27"/>
    <polygon class="cls-1" points="36.79 119.67 34.44 120.61 32.62 118.39 32.94 121.43 31.76 122.31 33.58 123.58 34.65 126.18 35.41 124.44 37.97 125.1 35.99 122.63 36.79 119.67"/>
    <polygon class="cls-1" points="43.5 116.72 41.86 113.32 40.64 116.98 37.51 117.56 39.9 119.77 39.64 123.26 42.38 121.41 45.63 123.18 44.6 119.49 47.23 116.88 43.5 116.72"/>
    <polygon class="cls-1" points="51.58 109.53 49.68 106.08 48.68 109.69 44.95 110.29 47.91 112.62 47.44 116.3 50.51 114.15 53.42 115.67 52.56 112.18 54.75 109.64 51.58 109.53"/>
    <polygon class="cls-1" points="49.56 99.54 47.34 100.41 50.43 101.26 51.71 103.85 52.66 101.84 55.09 102.59 53 100.54 52.89 99.19 51.11 99.25 48.67 97.95 49.56 99.54"/>
    <path class="cls-1" d="M57.47,105.03l-1.51.52-2.24-2.11.89,2.94-2.07,1.26,2.8.99,1.04,3.36s.79-1.99.89-2.8l1.72.43-1.45-2.38-.06-2.22Z"/>
    <path class="cls-1" d="M27.31,111.64l.69-2.37,1.28-.42-.6-1.48,1-2.41-1.33,1.5-.04-.51c-.42.75-1.21,3.32-1.21,3.32l.22-.04-.02,2.41Z"/>
    <path class="cls-1" d="M27.32,116.88l-.07-2.39-.51.89c.11,1.84.6,2.7.6,2.7l.73.57-.75-1.77Z"/>
    <path class="cls-1" d="M29.81,122.13l-.13-1.52-.71.33-1.04-1.46s1,3.14,2.36,4.49l.06-.29,1.1.82-1.63-2.37Z"/>
    <path class="cls-1" d="M33.86,126.18l-1.15-.05-1.66-1.46s2.87,3.32,4.71,3.71l-1.79-1.22-.11-.97Z"/>
    <path class="cls-1" d="M33.93,99.85l-.4-.13.81-.94c-.35.23-.68.47-.98.71-1.8,1.46-2.64,2.97-2.64,2.97,1.03-1.62,3.21-2.61,3.21-2.61Z"/>
    <path class="cls-1" d="M36.57,98.29c1.64-1.48,3.83-1.64,3.83-1.64-2.25-.21-4.79,1.35-4.79,1.35l.92-.27.04.55Z"/>
    <path class="cls-1" d="M45.8,97.07l1,1.35,1.14-1.02c.8.01,2.29.43,2.29.43-.27-.31-1.93-.94-1.93-.94l.23-.34c-.41-.23-3.63-.57-3.63-.57l.21.5c-1.05.06-1.91.43-1.91.43.97-.04,2.6.17,2.6.17Z"/>
    <path class="cls-1" d="M56.36,102.13l.03-.72.85.66c-.53-.74-3.76-3.47-3.76-3.47l.55.78-.61-.03c1.77.61,2.95,2.78,2.95,2.78Z"/>
    <path class="cls-1" d="M60.89,107.77c-.61-1.85-2.79-4.45-2.79-4.45l.88,1.67-.58.64c1.92,1.04,2.31,3.4,2.31,3.4.05-.66-.07-1.47-.07-1.47l.25.2Z"/>
  </g>
  <g>
    <path class="cls-1" d="M82.62,63.02v-.49c0-5.06,3.3-8.75,8.6-8.75s8.62,3.69,8.62,8.75v.49c0,5.06-3.3,8.75-8.62,8.75s-8.6-3.69-8.6-8.75ZM86.34,52.25v-3.76h3.86v3.76h-3.86ZM95.57,63.02v-.49c0-3.27-1.54-5.35-4.35-5.35s-4.32,2.08-4.32,5.35v.49c0,3.27,1.56,5.35,4.32,5.35s4.35-2.08,4.35-5.35ZM92.3,52.25v-3.76h3.86v3.76h-3.86Z"/>
    <path class="cls-1" d="M100.87,65.78h4.08c.24,1.83,1.56,2.76,3.62,2.76,1.83,0,2.91-.68,2.91-1.86v-.1c0-1.17-.78-1.69-4.05-2.27-4.18-.76-5.96-2.32-5.96-5.18v-.17c0-3.18,2.83-5.18,6.74-5.18s6.79,1.98,7.08,5.62h-4.08c-.17-1.64-1.27-2.42-3.08-2.42s-2.59.78-2.59,1.81v.07c0,1,.49,1.56,3.79,2.1,3.98.66,6.25,2.15,6.25,5.16v.2c0,3.37-2.98,5.45-7.11,5.45-4.59,0-7.35-2.25-7.6-5.99Z"/>
    <path class="cls-1" d="M120.73,71.45v-14h-4.79v-3.35h13.68v3.35h-4.76v14h-4.13Z"/>
    <path class="cls-1" d="M131.41,71.45v-17.34h12.8v3.35h-8.75v3.54h7.84v3.25h-7.84v3.86h8.94v3.35h-13Z"/>
    <path class="cls-1" d="M146.41,71.45v-17.34h7.87c3.69,0,6.45,1.95,6.45,5.62v.25c0,2.64-1.39,4.37-3.57,5.15l4.08,6.33h-4.52l-3.62-5.86h-2.61v5.86h-4.08ZM150.49,62.24h3.35c1.56,0,2.64-.68,2.64-2.27v-.25c0-1.59-1.07-2.27-2.64-2.27h-3.35v4.79Z"/>
    <path class="cls-1" d="M162.68,71.45v-17.34h7.87c3.69,0,6.45,1.95,6.45,5.62v.25c0,2.64-1.39,4.37-3.57,5.15l4.08,6.33h-4.52l-3.62-5.86h-2.61v5.86h-4.08ZM166.76,62.24h3.35c1.56,0,2.64-.68,2.64-2.27v-.25c0-1.59-1.07-2.27-2.64-2.27h-3.35v4.79Z"/>
    <path class="cls-1" d="M178.95,71.45v-17.34h12.8v3.35h-8.75v3.54h7.84v3.25h-7.84v3.86h8.94v3.35h-13Z"/>
    <path class="cls-1" d="M194.08,71.45v-17.34h4.15v17.34h-4.15Z"/>
    <path class="cls-1" d="M200.3,63.02v-.49c0-5.11,3.37-8.75,8.55-8.75,4.5,0,7.48,2.81,7.72,7.04h-4.15c-.17-2.32-1.54-3.64-3.64-3.64-2.71,0-4.2,2.15-4.2,5.35v.49c0,3.2,1.51,5.33,4.23,5.33,2.1,0,3.49-1.37,3.59-3.79h4.15c-.22,4.32-3.1,7.21-7.72,7.21-5.28,0-8.53-3.64-8.53-8.75Z"/>
    <path class="cls-1" d="M218.38,71.45v-17.34h4.13v6.77h6.94v-6.77h4.13v17.34h-4.13v-7.21h-6.94v7.21h-4.13Z"/>
    <path class="cls-1" d="M236.14,71.45v-17.34h4.15v17.34h-4.15Z"/>
    <path class="cls-1" d="M242.25,65.78h4.08c.24,1.83,1.56,2.76,3.62,2.76,1.83,0,2.91-.68,2.91-1.86v-.1c0-1.17-.78-1.69-4.05-2.27-4.18-.76-5.96-2.32-5.96-5.18v-.17c0-3.18,2.83-5.18,6.74-5.18s6.79,1.98,7.08,5.62h-4.08c-.17-1.64-1.27-2.42-3.08-2.42s-2.59.78-2.59,1.81v.07c0,1,.49,1.56,3.79,2.1,3.98.66,6.25,2.15,6.25,5.16v.2c0,3.37-2.98,5.45-7.11,5.45-4.59,0-7.35-2.25-7.6-5.99Z"/>
    <path class="cls-1" d="M258.18,63.02v-.49c0-5.11,3.37-8.75,8.55-8.75,4.5,0,7.48,2.81,7.72,7.04h-4.15c-.17-2.32-1.54-3.64-3.64-3.64-2.71,0-4.2,2.15-4.2,5.35v.49c0,3.2,1.51,5.33,4.23,5.33,2.1,0,3.49-1.37,3.59-3.79h4.15c-.22,4.32-3.1,7.21-7.72,7.21-5.28,0-8.53-3.64-8.53-8.75Z"/>
    <path class="cls-1" d="M276.26,71.45v-17.34h4.13v6.77h6.94v-6.77h4.13v17.34h-4.13v-7.21h-6.94v7.21h-4.13Z"/>
    <path class="cls-1" d="M293.9,71.45v-17.34h12.8v3.35h-8.75v3.54h7.84v3.25h-7.84v3.86h8.94v3.35h-13Z"/>
    <path class="cls-1" d="M308.9,71.45v-17.34h7.87c3.69,0,6.45,1.95,6.45,5.62v.25c0,2.64-1.39,4.37-3.57,5.15l4.08,6.33h-4.52l-3.62-5.86h-2.61v5.86h-4.08ZM312.98,62.24h3.35c1.56,0,2.64-.68,2.64-2.27v-.25c0-1.59-1.07-2.27-2.64-2.27h-3.35v4.79Z"/>
  </g>
  <g>
    <path class="cls-1" d="M85.91,90.59v-13.68h.81v7.92l7.63-7.92h1.08l-5.7,5.88,5.9,7.8h-1l-5.47-7.23-2.43,2.5v4.72h-.81Z"/>
    <path class="cls-1" d="M97.4,90.59v-13.68h.81v12.95h6.42v.73h-7.23Z"/>
    <path class="cls-1" d="M106.53,90.59v-13.68h8.46v.73h-7.65v5.57h6.98v.73h-6.98v5.92h7.69v.73h-8.5Z"/>
    <path class="cls-1" d="M117.52,90.59v-13.68h.81v13.68h-.81Z"/>
    <path class="cls-1" d="M121.35,90.59v-13.68h.93l8.36,12.41v-12.41h.81v13.68h-.89l-8.4-12.49v12.49h-.81Z"/>
    <path class="cls-1" d="M134.46,90.59v-13.68h7.96v.73h-7.15v5.61h6.42v.73h-6.42v6.61h-.81Z"/>
    <path class="cls-1" d="M144.66,90.59v-13.68h8.46v.73h-7.65v5.57h6.98v.73h-6.98v5.92h7.69v.73h-8.5Z"/>
    <path class="cls-1" d="M155.62,90.59v-13.68h.81v12.95h6.42v.73h-7.23Z"/>
    <path class="cls-1" d="M164.76,90.59v-13.68h4.09c3.78,0,6.38,2.29,6.38,6.53v.62c0,4.22-2.58,6.53-6.38,6.53h-4.09ZM165.57,89.86h3.14c3.55,0,5.67-2.04,5.67-5.8v-.62c0-3.76-2.1-5.8-5.67-5.8h-3.14v12.22Z"/>
    <path class="cls-1" d="M180.99,90.59v-13.68h7.96v.73h-7.15v5.61h6.42v.73h-6.42v6.61h-.81Z"/>
    <path class="cls-1" d="M190.78,85.56v-8.65h.81v8.61c0,3.03,1.58,4.53,4.24,4.53s4.24-1.52,4.24-4.55v-8.59h.81v8.65c0,3.24-1.73,5.26-5.05,5.26s-5.05-2.02-5.05-5.26Z"/>
    <path class="cls-1" d="M202.87,86.53h.85c.21,2.51,2.04,3.55,4.3,3.55s3.93-1.1,3.93-2.97v-.17c0-1.85-1.68-2.54-4.18-2.95-2.87-.46-4.38-1.45-4.38-3.49v-.19c0-2,1.77-3.62,4.39-3.62,2.49,0,4.37,1.29,4.72,3.83h-.85c-.31-2.04-1.77-3.08-3.87-3.08s-3.58,1.16-3.58,2.87v.17c0,1.72,1.43,2.37,3.78,2.76,2.85.48,4.78,1.37,4.78,3.66v.19c0,2.2-1.93,3.74-4.78,3.74s-4.95-1.45-5.11-4.3Z"/>
    <path class="cls-1" d="M214.01,86.53h.85c.21,2.51,2.04,3.55,4.3,3.55s3.93-1.1,3.93-2.97v-.17c0-1.85-1.68-2.54-4.18-2.95-2.87-.46-4.38-1.45-4.38-3.49v-.19c0-2,1.77-3.62,4.39-3.62,2.49,0,4.37,1.29,4.72,3.83h-.85c-.31-2.04-1.77-3.08-3.87-3.08s-3.58,1.16-3.58,2.87v.17c0,1.72,1.43,2.37,3.78,2.76,2.85.48,4.78,1.37,4.78,3.66v.19c0,2.2-1.93,3.74-4.78,3.74s-4.95-1.45-5.11-4.3Z"/>
    <path class="cls-1" d="M226.17,90.59v-13.68h4.84c2.43,0,4.14,1,4.14,3.33v.21c0,1.68-1.14,2.52-2.08,2.87,1.48.35,2.74,1.48,2.74,3.35v.25c0,2.33-1.73,3.66-4.28,3.66h-5.36ZM226.98,83.06h4.12c1.93,0,3.22-.89,3.22-2.6v-.21c0-1.75-1.21-2.6-3.3-2.6h-4.05v5.42ZM226.98,89.86h4.62c1.99,0,3.39-1.04,3.39-2.93v-.25c0-1.89-1.37-2.91-3.51-2.91h-4.51v6.09Z"/>
    <path class="cls-1" d="M247.66,90.59l-1.71-4.32h-6.65l-1.72,4.32h-.83l5.45-13.68h.87l5.43,13.68h-.85ZM239.58,85.54h6.07l-3.03-7.65-3.04,7.65Z"/>
    <path class="cls-1" d="M250.32,90.59v-13.68h.81v12.95h6.42v.73h-7.23Z"/>
    <path class="cls-1" d="M259.46,90.59v-13.68h.81v12.95h6.42v.73h-7.23Z"/>
    <path class="cls-1" d="M271.98,90.59v-13.68h4.84c2.43,0,4.14,1,4.14,3.33v.21c0,1.68-1.14,2.52-2.08,2.87,1.48.35,2.74,1.48,2.74,3.35v.25c0,2.33-1.73,3.66-4.28,3.66h-5.36ZM272.79,83.06h4.12c1.93,0,3.22-.89,3.22-2.6v-.21c0-1.75-1.21-2.6-3.3-2.6h-4.05v5.42ZM272.79,89.86h4.62c1.99,0,3.39-1.04,3.39-2.93v-.25c0-1.89-1.37-2.91-3.51-2.91h-4.51v6.09Z"/>
    <path class="cls-1" d="M283.84,85.56v-8.65h.81v8.61c0,3.03,1.58,4.53,4.24,4.53s4.24-1.52,4.24-4.55v-8.59h.81v8.65c0,3.24-1.73,5.26-5.05,5.26s-5.05-2.02-5.05-5.26Z"/>
    <path class="cls-1" d="M296.87,90.59v-13.68h.93l8.36,12.41v-12.41h.81v13.68h-.89l-8.4-12.49v12.49h-.81Z"/>
    <path class="cls-1" d="M309.97,90.59v-13.68h4.09c3.78,0,6.38,2.29,6.38,6.53v.62c0,4.22-2.58,6.53-6.38,6.53h-4.09ZM310.78,89.86h3.14c3.55,0,5.67-2.04,5.67-5.8v-.62c0-3.76-2.1-5.8-5.67-5.8h-3.14v12.22Z"/>
  </g>
</svg>