<?xml version="1.0" encoding="UTF-8"?>
<svg id="Ebene_1" data-name="Ebene 1" xmlns="http://www.w3.org/2000/svg" xmlns:xlink="http://www.w3.org/1999/xlink" viewBox="0 0 119.87 156.81">
  <defs>
    <style>
      .cls-1 {
        fill: url(#_Безымянный_градиент_797-6);
      }

      .cls-1, .cls-2, .cls-3, .cls-4, .cls-5, .cls-6, .cls-7, .cls-8, .cls-9, .cls-10, .cls-11, .cls-12, .cls-13, .cls-14, .cls-15, .cls-16, .cls-17, .cls-18, .cls-19, .cls-20, .cls-21, .cls-22 {
        stroke-width: 0px;
      }

      .cls-2 {
        fill: url(#_Безымянный_градиент_797-9);
      }

      .cls-3 {
        fill: url(#_Безымянный_градиент_797-8);
      }

      .cls-4 {
        fill: url(#_Безымянный_градиент_797-3);
      }

      .cls-5 {
        fill: url(#_Безымянный_градиент_797-7);
      }

      .cls-6 {
        fill: url(#_Безымянный_градиент_797-2);
      }

      .cls-7 {
        fill: url(#_Безымянный_градиент_797-4);
      }

      .cls-8 {
        fill: url(#_Безымянный_градиент_797-5);
      }

      .cls-9 {
        fill: url(#_Безымянный_градиент_797-20);
      }

      .cls-10 {
        fill: url(#_Безымянный_градиент_797-21);
      }

      .cls-11 {
        fill: url(#_Безымянный_градиент_797-19);
      }

      .cls-12 {
        fill: url(#_Безымянный_градиент_797-18);
      }

      .cls-13 {
        fill: url(#_Безымянный_градиент_797-12);
      }

      .cls-14 {
        fill: url(#_Безымянный_градиент_797-17);
      }

      .cls-15 {
        fill: url(#_Безымянный_градиент_797-10);
      }

      .cls-16 {
        fill: url(#_Безымянный_градиент_797-13);
      }

      .cls-17 {
        fill: url(#_Безымянный_градиент_797-11);
      }

      .cls-18 {
        fill: url(#_Безымянный_градиент_797-14);
      }

      .cls-19 {
        fill: url(#_Безымянный_градиент_797-15);
      }

      .cls-20 {
        fill: url(#_Безымянный_градиент_797-16);
      }

      .cls-21 {
        fill: url(#Unbenannter_Verlauf_2);
      }

      .cls-22 {
        fill: url(#_Безымянный_градиент_797);
      }
    </style>
    <linearGradient id="_Безымянный_градиент_797" data-name="Безымянный градиент 797" x1="34.26" y1="53.64" x2="75.52" y2="53.64" gradientUnits="userSpaceOnUse">
      <stop offset="0" stop-color="#adadad"/>
      <stop offset=".03" stop-color="#b9b9b9"/>
      <stop offset=".14" stop-color="#dedede"/>
      <stop offset=".19" stop-color="#ededed"/>
      <stop offset=".3" stop-color="#d6d6d6"/>
      <stop offset=".4" stop-color="#c8c8c8"/>
      <stop offset=".48" stop-color="#c4c4c4"/>
      <stop offset=".61" stop-color="#eaeaea"/>
      <stop offset=".68" stop-color="#fff"/>
      <stop offset=".76" stop-color="#f4f4f4"/>
      <stop offset=".87" stop-color="#e0e0e0"/>
      <stop offset="1" stop-color="#fff"/>
    </linearGradient>
    <linearGradient id="_Безымянный_градиент_797-2" data-name="Безымянный градиент 797" x1="46.98" y1="39.74" x2="82.71" y2="39.74" xlink:href="#_Безымянный_градиент_797"/>
    <linearGradient id="_Безымянный_градиент_797-3" data-name="Безымянный градиент 797" x1="54.18" y1="87.12" x2="67.05" y2="87.12" xlink:href="#_Безымянный_градиент_797"/>
    <linearGradient id="_Безымянный_градиент_797-4" data-name="Безымянный градиент 797" x1="27.93" y1="127.89" x2="87.52" y2="100.55" xlink:href="#_Безымянный_градиент_797"/>
    <linearGradient id="_Безымянный_градиент_797-5" data-name="Безымянный градиент 797" x1="28.98" y1="130.19" x2="88.58" y2="102.85" xlink:href="#_Безымянный_градиент_797"/>
    <linearGradient id="_Безымянный_градиент_797-6" data-name="Безымянный градиент 797" x1="25.85" y1="123.35" x2="85.44" y2="96.01" xlink:href="#_Безымянный_градиент_797"/>
    <linearGradient id="_Безымянный_градиент_797-7" data-name="Безымянный градиент 797" x1="25.32" y1="122.21" x2="84.91" y2="94.87" xlink:href="#_Безымянный_градиент_797"/>
    <linearGradient id="Unbenannter_Verlauf_2" data-name="Unbenannter Verlauf 2" x1="29.37" y1="131.04" x2="88.96" y2="103.7" gradientUnits="userSpaceOnUse">
      <stop offset="0" stop-color="#adadad"/>
      <stop offset="0" stop-color="#b9b9b9"/>
      <stop offset="0" stop-color="#dedede"/>
      <stop offset="0" stop-color="#ededed"/>
      <stop offset=".17" stop-color="#d6d6d6"/>
      <stop offset=".34" stop-color="#c8c8c8"/>
      <stop offset=".48" stop-color="#c4c4c4"/>
      <stop offset=".61" stop-color="#eaeaea"/>
      <stop offset=".68" stop-color="#fff"/>
      <stop offset=".76" stop-color="#f4f4f4"/>
      <stop offset=".87" stop-color="#e0e0e0"/>
      <stop offset="1" stop-color="#fff"/>
    </linearGradient>
    <linearGradient id="_Безымянный_градиент_797-8" data-name="Безымянный градиент 797" x1="33.17" y1="139.32" x2="92.77" y2="111.98" xlink:href="#_Безымянный_градиент_797"/>
    <linearGradient id="_Безымянный_градиент_797-9" data-name="Безымянный градиент 797" x1="33.32" y1="139.64" x2="92.91" y2="112.3" xlink:href="#_Безымянный_градиент_797"/>
    <linearGradient id="_Безымянный_градиент_797-10" data-name="Безымянный градиент 797" x1="31.88" y1="136.5" x2="91.47" y2="109.16" xlink:href="#_Безымянный_градиент_797"/>
    <linearGradient id="_Безымянный_градиент_797-11" data-name="Безымянный градиент 797" x1="27.91" y1="127.86" x2="87.51" y2="100.52" xlink:href="#_Безымянный_градиент_797"/>
    <linearGradient id="_Безымянный_градиент_797-12" data-name="Безымянный градиент 797" x1="31.29" y1="135.22" x2="90.88" y2="107.87" xlink:href="#_Безымянный_градиент_797"/>
    <linearGradient id="_Безымянный_градиент_797-13" data-name="Безымянный градиент 797" x1="26.89" y1="125.64" x2="86.49" y2="98.29" xlink:href="#_Безымянный_градиент_797"/>
    <linearGradient id="_Безымянный_градиент_797-14" data-name="Безымянный градиент 797" x1="29.88" y1="132.16" x2="89.48" y2="104.81" xlink:href="#_Безымянный_градиент_797"/>
    <linearGradient id="_Безымянный_градиент_797-15" data-name="Безымянный градиент 797" x1="32.29" y1="137.39" x2="91.88" y2="110.05" xlink:href="#_Безымянный_градиент_797"/>
    <linearGradient id="_Безымянный_градиент_797-16" data-name="Безымянный градиент 797" x1="34.65" y1="142.55" x2="94.25" y2="115.21" xlink:href="#_Безымянный_градиент_797"/>
    <linearGradient id="_Безымянный_градиент_797-17" data-name="Безымянный градиент 797" x1="24.68" y1="120.82" x2="84.28" y2="93.48" xlink:href="#_Безымянный_градиент_797"/>
    <linearGradient id="_Безымянный_градиент_797-18" data-name="Безымянный градиент 797" x1="24.38" y1="120.16" x2="83.97" y2="92.81" xlink:href="#_Безымянный_градиент_797"/>
    <linearGradient id="_Безымянный_градиент_797-19" data-name="Безымянный градиент 797" x1="25.89" y1="123.45" x2="85.48" y2="96.1" xlink:href="#_Безымянный_градиент_797"/>
    <linearGradient id="_Безымянный_градиент_797-20" data-name="Безымянный градиент 797" x1="28.54" y1="129.24" x2="88.14" y2="101.9" xlink:href="#_Безымянный_градиент_797"/>
    <linearGradient id="_Безымянный_градиент_797-21" data-name="Безымянный градиент 797" x1="31.46" y1="135.6" x2="91.06" y2="108.26" xlink:href="#_Безымянный_градиент_797"/>
  </defs>
  <g>
    <path class="cls-22" d="M34.78,22.6c-1.19,3.22-.3,6.98,2.59,9.81,4.03,3.95,8.13,7.82,12.19,11.73,6.31,6.09,12.63,12.17,18.91,18.28,1.93,1.87,2.46,3.73,1.76,5.85-9.53-9.17-19.02-18.29-28.81-27.71-.79,4.24.32,7.27,3.05,9.87,7.18,6.85,14.31,13.76,21.45,20.64,1.64,1.58,2.46,3.46,2.11,6.21-6.77-6.49-13.29-12.74-20.05-19.23-.75,3.83.16,6.69,2.65,9.08,4.99,4.81,9.98,9.63,14.97,14.43,1.04,1,2.12,1.95,3.36,3.09,2.12-5.67,4.25-10.96,6.06-16.35,1.15-3.42.26-6.65-2.35-9.18-12.63-12.23-25.31-24.41-37.9-36.54Z"/>
    <path class="cls-6" d="M81.64,45.67c-2.29-2.45-4.82-4.67-7.25-6.99-.17.07-.34.14-.51.21.16,1.03.32,2.07.44,2.82-2.61.97-5.17,1.93-7.78,2.91-.67-4.12-3.47-7.04-6.48-9.87-1.31-1.23-2.61-2.48-3.91-3.73-2.76-2.65-5.51-5.32-8.28-7.99-1.62,3.2-1.04,6.84,1.9,9.74.94.92,1.89,1.84,2.83,2.76,4.55,4.43,9.14,8.83,13.71,13.24,2.66,2.57,5.34,5.12,8,7.67.41-1.69.48-3.35,1.23-4.61.65-1.1,1.97-2.23,3.16-2.43.89-.15,2.03,1.14,3.13,1.82,1.11-1.14,1.3-3.98-.18-5.57Z"/>
    <path class="cls-4" d="M54.52,74.33c-.74,3.42-.3,5.86,1.74,7.9,2.01,2.01,4.12,3.93,6.12,5.96,1.26,1.29,2.17,2.76.95,5.41-1.51-1.92-2.78-3.54-4.05-5.16-.19.16-.37.31-.56.47,1.43,3.67,2.85,7.33,4.28,11,.16,0,.32,0,.47.01,1.13-3.15,2.36-6.27,3.37-9.46.6-1.9-.17-3.57-1.55-4.98-3.48-3.57-6.94-7.17-10.78-11.14Z"/>
  </g>
  <g>
    <polygon class="cls-7" points="61.97 115.74 64.56 113.18 67.92 114.27 66.15 111.44 67.59 109.32 64.38 109.47 62.29 107.4 61.94 109.94 58.69 110.97 61.79 112.32 61.97 115.74"/>
    <polygon class="cls-8" points="56.83 115.59 55.41 113.66 54.46 116.42 51.62 117.84 53.89 118.89 53.76 122.32 56.16 119.8 59.51 120.6 57.99 117.58 60.18 114.82 56.83 115.59"/>
    <polygon class="cls-1" points="51 114.46 52.52 111.68 55.1 111.11 53.79 109.77 55.08 107.63 52.91 109.12 51.88 108.76 51.18 110.49 49.48 112.29 50.93 112.06 51 114.46"/>
    <polygon class="cls-5" points="59.93 105.22 58.13 104.96 57.91 106.04 55.58 107.4 57.97 107.3 58.47 109.15 60.19 107.08 63.38 106.94 61.37 105.74 62.43 104.5 59.93 105.22"/>
    <polygon class="cls-21" points="49.13 119.89 48.07 118.39 48.05 121.11 47.26 122.59 48.33 123.24 49.03 126.08 49.55 123.64 51.65 123.86 50.15 121.41 50.83 118.41 49.13 119.89"/>
    <polygon class="cls-3" points="56.36 127.3 54 128.23 52.19 126.02 52.51 129.05 51.33 129.93 53.14 131.21 54.22 133.8 54.98 132.07 57.54 132.73 55.56 130.25 56.36 127.3"/>
    <polygon class="cls-2" points="63.06 124.34 61.43 120.95 60.21 124.6 57.08 125.18 59.47 127.4 59.21 130.89 61.95 129.03 65.2 130.81 64.16 127.12 66.8 124.5 63.06 124.34"/>
    <polygon class="cls-15" points="71.15 117.15 69.24 113.71 68.24 117.31 64.52 117.92 67.48 120.24 67.01 123.92 70.08 121.78 72.99 123.29 72.13 119.8 74.32 117.27 71.15 117.15"/>
    <polygon class="cls-17" points="69.12 107.17 66.91 108.04 69.99 108.89 71.28 111.47 72.23 109.47 74.66 110.21 72.56 108.16 72.46 106.81 70.68 106.88 68.23 105.57 69.12 107.17"/>
    <path class="cls-13" d="M77.04,112.66l-1.51.52-2.24-2.11.89,2.94-2.07,1.26,2.8.99,1.04,3.36s.79-1.99.89-2.8l1.72.43-1.45-2.38-.06-2.22Z"/>
    <path class="cls-16" d="M46.87,119.27l.69-2.37,1.28-.42-.6-1.48,1-2.41-1.33,1.5-.04-.51c-.42.75-1.21,3.32-1.21,3.32l.22-.04-.02,2.41Z"/>
    <path class="cls-18" d="M46.89,124.51l-.07-2.39-.51.89c.11,1.84.6,2.7.6,2.7l.73.57-.75-1.77Z"/>
    <path class="cls-19" d="M49.38,129.75l-.13-1.52-.71.33-1.04-1.46s1,3.14,2.36,4.49l.06-.29,1.1.82-1.63-2.37Z"/>
    <path class="cls-20" d="M53.43,133.8l-1.15-.05-1.66-1.46s2.87,3.32,4.71,3.71l-1.79-1.22-.11-.97Z"/>
    <path class="cls-14" d="M53.5,107.47l-.4-.13.81-.94c-.35.23-.68.47-.98.71-1.8,1.46-2.64,2.97-2.64,2.97,1.03-1.62,3.21-2.61,3.21-2.61Z"/>
    <path class="cls-12" d="M56.14,105.92c1.64-1.48,3.83-1.64,3.83-1.64-2.25-.21-4.79,1.35-4.79,1.35l.92-.27.04.55Z"/>
    <path class="cls-11" d="M65.37,104.7l1,1.35,1.14-1.02c.8.01,2.29.43,2.29.43-.27-.31-1.93-.94-1.93-.94l.23-.34c-.41-.23-3.63-.57-3.63-.57l.21.5c-1.05.06-1.91.43-1.91.43.97-.04,2.6.17,2.6.17Z"/>
    <path class="cls-9" d="M75.92,109.76l.03-.72.85.66c-.53-.74-3.76-3.47-3.76-3.47l.55.78-.61-.03c1.77.61,2.95,2.78,2.95,2.78Z"/>
    <path class="cls-10" d="M80.46,115.39c-.61-1.85-2.79-4.45-2.79-4.45l.88,1.67-.58.64c1.92,1.04,2.31,3.4,2.31,3.4.05-.66-.07-1.47-.07-1.47l.25.2Z"/>
  </g>
</svg>