<?xml version="1.0" encoding="UTF-8"?>
<svg id="Ebene_1" data-name="Ebene 1" xmlns="http://www.w3.org/2000/svg" xmlns:xlink="http://www.w3.org/1999/xlink" viewBox="0 0 398.51 159.92">
  <defs>
    <style>
      .cls-1 {
        fill: url(#_Безымянный_градиент_797-6);
      }

      .cls-1, .cls-2, .cls-3, .cls-4, .cls-5, .cls-6, .cls-7, .cls-8, .cls-9, .cls-10, .cls-11, .cls-12, .cls-13, .cls-14, .cls-15, .cls-16, .cls-17, .cls-18, .cls-19, .cls-20, .cls-21, .cls-22, .cls-23, .cls-24, .cls-25, .cls-26, .cls-27, .cls-28, .cls-29, .cls-30, .cls-31, .cls-32, .cls-33, .cls-34, .cls-35, .cls-36, .cls-37, .cls-38, .cls-39, .cls-40, .cls-41, .cls-42, .cls-43, .cls-44, .cls-45, .cls-46, .cls-47, .cls-48, .cls-49, .cls-50, .cls-51, .cls-52, .cls-53, .cls-54, .cls-55, .cls-56, .cls-57, .cls-58, .cls-59 {
        stroke-width: 0px;
      }

      .cls-2 {
        fill: url(#_Безымянный_градиент_797-9);
      }

      .cls-3 {
        fill: url(#_Безымянный_градиент_797-8);
      }

      .cls-4 {
        fill: url(#_Безымянный_градиент_797-3);
      }

      .cls-5 {
        fill: url(#_Безымянный_градиент_797-7);
      }

      .cls-6 {
        fill: url(#_Безымянный_градиент_797-2);
      }

      .cls-7 {
        fill: url(#_Безымянный_градиент_797-4);
      }

      .cls-8 {
        fill: url(#_Безымянный_градиент_797-5);
      }

      .cls-9 {
        fill: url(#_Безымянный_градиент_797-31);
      }

      .cls-10 {
        fill: url(#_Безымянный_градиент_797-32);
      }

      .cls-11 {
        fill: url(#_Безымянный_градиент_797-35);
      }

      .cls-12 {
        fill: url(#_Безымянный_градиент_797-30);
      }

      .cls-13 {
        fill: url(#_Безымянный_градиент_797-33);
      }

      .cls-14 {
        fill: url(#_Безымянный_градиент_797-29);
      }

      .cls-15 {
        fill: url(#_Безымянный_градиент_797-37);
      }

      .cls-16 {
        fill: url(#_Безымянный_градиент_797-34);
      }

      .cls-17 {
        fill: url(#_Безымянный_градиент_797-39);
      }

      .cls-18 {
        fill: url(#_Безымянный_градиент_797-36);
      }

      .cls-19 {
        fill: url(#_Безымянный_градиент_797-38);
      }

      .cls-20 {
        fill: url(#_Безымянный_градиент_797-22);
      }

      .cls-21 {
        fill: url(#_Безымянный_градиент_797-28);
      }

      .cls-22 {
        fill: url(#_Безымянный_градиент_797-20);
      }

      .cls-23 {
        fill: url(#_Безымянный_градиент_797-26);
      }

      .cls-24 {
        fill: url(#_Безымянный_градиент_797-21);
      }

      .cls-25 {
        fill: url(#_Безымянный_градиент_797-27);
      }

      .cls-26 {
        fill: url(#_Безымянный_градиент_797-23);
      }

      .cls-27 {
        fill: url(#_Безымянный_градиент_797-25);
      }

      .cls-28 {
        fill: url(#_Безымянный_градиент_797-24);
      }

      .cls-29 {
        fill: url(#_Безымянный_градиент_797-44);
      }

      .cls-30 {
        fill: url(#_Безымянный_градиент_797-41);
      }

      .cls-31 {
        fill: url(#_Безымянный_градиент_797-43);
      }

      .cls-32 {
        fill: url(#_Безымянный_градиент_797-42);
      }

      .cls-33 {
        fill: url(#_Безымянный_градиент_797-47);
      }

      .cls-34 {
        fill: url(#_Безымянный_градиент_797-49);
      }

      .cls-35 {
        fill: url(#_Безымянный_градиент_797-19);
      }

      .cls-36 {
        fill: url(#_Безымянный_градиент_797-18);
      }

      .cls-37 {
        fill: url(#_Безымянный_градиент_797-12);
      }

      .cls-38 {
        fill: url(#_Безымянный_градиент_797-17);
      }

      .cls-39 {
        fill: url(#_Безымянный_градиент_797-10);
      }

      .cls-40 {
        fill: url(#_Безымянный_градиент_797-13);
      }

      .cls-41 {
        fill: url(#_Безымянный_градиент_797-11);
      }

      .cls-42 {
        fill: url(#_Безымянный_градиент_797-14);
      }

      .cls-43 {
        fill: url(#_Безымянный_градиент_797-15);
      }

      .cls-44 {
        fill: url(#_Безымянный_градиент_797-16);
      }

      .cls-45 {
        fill: url(#_Безымянный_градиент_797-53);
      }

      .cls-46 {
        fill: url(#_Безымянный_градиент_797-54);
      }

      .cls-47 {
        fill: url(#_Безымянный_градиент_797-51);
      }

      .cls-48 {
        fill: url(#_Безымянный_градиент_797-52);
      }

      .cls-49 {
        fill: url(#_Безымянный_градиент_797-57);
      }

      .cls-50 {
        fill: url(#_Безымянный_градиент_797-58);
      }

      .cls-51 {
        fill: url(#_Безымянный_градиент_797-50);
      }

      .cls-52 {
        fill: url(#_Безымянный_градиент_797-55);
      }

      .cls-53 {
        fill: url(#_Безымянный_градиент_797-56);
      }

      .cls-54 {
        fill: url(#_Безымянный_градиент_797-46);
      }

      .cls-55 {
        fill: url(#_Безымянный_градиент_797-45);
      }

      .cls-56 {
        fill: url(#_Безымянный_градиент_797-48);
      }

      .cls-57 {
        fill: url(#_Безымянный_градиент_797-40);
      }

      .cls-58 {
        fill: url(#Unbenannter_Verlauf_2);
      }

      .cls-59 {
        fill: url(#_Безымянный_градиент_797);
      }
    </style>
    <linearGradient id="_Безымянный_градиент_797" data-name="Безымянный градиент 797" x1="21.52" y1="46.98" x2="69.65" y2="46.98" gradientUnits="userSpaceOnUse">
      <stop offset="0" stop-color="#adadad"/>
      <stop offset=".03" stop-color="#b9b9b9"/>
      <stop offset=".14" stop-color="#dedede"/>
      <stop offset=".19" stop-color="#ededed"/>
      <stop offset=".3" stop-color="#d6d6d6"/>
      <stop offset=".4" stop-color="#c8c8c8"/>
      <stop offset=".48" stop-color="#c4c4c4"/>
      <stop offset=".61" stop-color="#eaeaea"/>
      <stop offset=".68" stop-color="#fff"/>
      <stop offset=".76" stop-color="#f4f4f4"/>
      <stop offset=".87" stop-color="#e0e0e0"/>
      <stop offset="1" stop-color="#fff"/>
    </linearGradient>
    <linearGradient id="_Безымянный_градиент_797-2" data-name="Безымянный градиент 797" x1="36.35" y1="30.77" x2="78.04" y2="30.77" xlink:href="#_Безымянный_градиент_797"/>
    <linearGradient id="_Безымянный_градиент_797-3" data-name="Безымянный градиент 797" x1="44.76" y1="86.04" x2="59.77" y2="86.04" xlink:href="#_Безымянный_градиент_797"/>
    <linearGradient id="_Безымянный_градиент_797-4" data-name="Безымянный градиент 797" x1="14.12" y1="133.61" x2="83.65" y2="101.71" xlink:href="#_Безымянный_градиент_797"/>
    <linearGradient id="_Безымянный_градиент_797-5" data-name="Безымянный градиент 797" x1="15.36" y1="136.3" x2="84.88" y2="104.4" xlink:href="#_Безымянный_градиент_797"/>
    <linearGradient id="_Безымянный_градиент_797-6" data-name="Безымянный градиент 797" x1="11.7" y1="128.32" x2="81.22" y2="96.42" xlink:href="#_Безымянный_градиент_797"/>
    <linearGradient id="_Безымянный_градиент_797-7" data-name="Безымянный градиент 797" x1="11.08" y1="126.98" x2="80.61" y2="95.08" xlink:href="#_Безымянный_градиент_797"/>
    <linearGradient id="Unbenannter_Verlauf_2" data-name="Unbenannter Verlauf 2" x1="15.81" y1="137.28" x2="85.34" y2="105.38" gradientUnits="userSpaceOnUse">
      <stop offset="0" stop-color="#adadad"/>
      <stop offset="0" stop-color="#b9b9b9"/>
      <stop offset="0" stop-color="#dedede"/>
      <stop offset="0" stop-color="#ededed"/>
      <stop offset=".17" stop-color="#d6d6d6"/>
      <stop offset=".34" stop-color="#c8c8c8"/>
      <stop offset=".48" stop-color="#c4c4c4"/>
      <stop offset=".61" stop-color="#eaeaea"/>
      <stop offset=".68" stop-color="#fff"/>
      <stop offset=".76" stop-color="#f4f4f4"/>
      <stop offset=".87" stop-color="#e0e0e0"/>
      <stop offset="1" stop-color="#fff"/>
    </linearGradient>
    <linearGradient id="_Безымянный_градиент_797-8" data-name="Безымянный градиент 797" x1="20.24" y1="146.95" x2="89.77" y2="115.05" xlink:href="#_Безымянный_градиент_797"/>
    <linearGradient id="_Безымянный_градиент_797-9" data-name="Безымянный градиент 797" x1="20.41" y1="147.32" x2="89.94" y2="115.42" xlink:href="#_Безымянный_градиент_797"/>
    <linearGradient id="_Безымянный_градиент_797-10" data-name="Безымянный градиент 797" x1="18.73" y1="143.66" x2="88.26" y2="111.76" xlink:href="#_Безымянный_градиент_797"/>
    <linearGradient id="_Безымянный_градиент_797-11" data-name="Безымянный градиент 797" x1="14.11" y1="133.58" x2="83.64" y2="101.68" xlink:href="#_Безымянный_градиент_797"/>
    <linearGradient id="_Безымянный_градиент_797-12" data-name="Безымянный градиент 797" x1="18.05" y1="142.16" x2="87.57" y2="110.26" xlink:href="#_Безымянный_градиент_797"/>
    <linearGradient id="_Безымянный_градиент_797-13" data-name="Безымянный градиент 797" x1="12.92" y1="130.98" x2="82.44" y2="99.08" xlink:href="#_Безымянный_градиент_797"/>
    <linearGradient id="_Безымянный_градиент_797-14" data-name="Безымянный градиент 797" x1="16.41" y1="138.59" x2="85.93" y2="106.69" xlink:href="#_Безымянный_градиент_797"/>
    <linearGradient id="_Безымянный_градиент_797-15" data-name="Безымянный градиент 797" x1="19.21" y1="144.7" x2="88.74" y2="112.8" xlink:href="#_Безымянный_градиент_797"/>
    <linearGradient id="_Безымянный_градиент_797-16" data-name="Безымянный градиент 797" x1="21.97" y1="150.71" x2="91.5" y2="118.81" xlink:href="#_Безымянный_градиент_797"/>
    <linearGradient id="_Безымянный_градиент_797-17" data-name="Безымянный градиент 797" x1="10.34" y1="125.36" x2="79.87" y2="93.46" xlink:href="#_Безымянный_градиент_797"/>
    <linearGradient id="_Безымянный_градиент_797-18" data-name="Безымянный градиент 797" x1="9.98" y1="124.59" x2="79.51" y2="92.69" xlink:href="#_Безымянный_градиент_797"/>
    <linearGradient id="_Безымянный_градиент_797-19" data-name="Безымянный градиент 797" x1="11.74" y1="128.42" x2="81.27" y2="96.52" xlink:href="#_Безымянный_градиент_797"/>
    <linearGradient id="_Безымянный_градиент_797-20" data-name="Безымянный градиент 797" x1="14.84" y1="135.18" x2="84.37" y2="103.28" xlink:href="#_Безымянный_градиент_797"/>
    <linearGradient id="_Безымянный_градиент_797-21" data-name="Безымянный градиент 797" x1="18.25" y1="142.6" x2="87.78" y2="110.7" xlink:href="#_Безымянный_градиент_797"/>
    <linearGradient id="_Безымянный_градиент_797-22" data-name="Безымянный градиент 797" x1="114.13" y1="60.68" x2="254.01" y2="-23.57" xlink:href="#_Безымянный_градиент_797"/>
    <linearGradient id="_Безымянный_градиент_797-23" data-name="Безымянный градиент 797" x1="121.18" y1="72.37" x2="261.06" y2="-11.87" xlink:href="#_Безымянный_градиент_797"/>
    <linearGradient id="_Безымянный_градиент_797-24" data-name="Безымянный градиент 797" x1="124.9" y1="78.55" x2="264.78" y2="-5.69" xlink:href="#_Безымянный_градиент_797"/>
    <linearGradient id="_Безымянный_градиент_797-25" data-name="Безымянный градиент 797" x1="130.33" y1="87.58" x2="270.21" y2="3.33" xlink:href="#_Безымянный_градиент_797"/>
    <linearGradient id="_Безымянный_градиент_797-26" data-name="Безымянный градиент 797" x1="135.28" y1="95.79" x2="275.16" y2="11.54" xlink:href="#_Безымянный_градиент_797"/>
    <linearGradient id="_Безымянный_градиент_797-27" data-name="Безымянный градиент 797" x1="140.33" y1="104.18" x2="280.21" y2="19.93" xlink:href="#_Безымянный_градиент_797"/>
    <linearGradient id="_Безымянный_градиент_797-28" data-name="Безымянный градиент 797" x1="145.1" y1="112.09" x2="284.98" y2="27.85" xlink:href="#_Безымянный_градиент_797"/>
    <linearGradient id="_Безымянный_градиент_797-29" data-name="Безымянный градиент 797" x1="148.42" y1="117.61" x2="288.3" y2="33.37" xlink:href="#_Безымянный_градиент_797"/>
    <linearGradient id="_Безымянный_градиент_797-30" data-name="Безымянный градиент 797" x1="152.34" y1="124.12" x2="292.22" y2="39.88" xlink:href="#_Безымянный_градиент_797"/>
    <linearGradient id="_Безымянный_градиент_797-31" data-name="Безымянный градиент 797" x1="157.69" y1="132.99" x2="297.56" y2="48.75" xlink:href="#_Безымянный_градиент_797"/>
    <linearGradient id="_Безымянный_градиент_797-32" data-name="Безымянный градиент 797" x1="161.49" y1="139.3" x2="301.37" y2="55.06" xlink:href="#_Безымянный_градиент_797"/>
    <linearGradient id="_Безымянный_градиент_797-33" data-name="Безымянный градиент 797" x1="165.08" y1="145.27" x2="304.96" y2="61.03" xlink:href="#_Безымянный_градиент_797"/>
    <linearGradient id="_Безымянный_градиент_797-34" data-name="Безымянный градиент 797" x1="170.32" y1="153.97" x2="310.2" y2="69.72" xlink:href="#_Безымянный_градиент_797"/>
    <linearGradient id="_Безымянный_градиент_797-35" data-name="Безымянный градиент 797" x1="175.66" y1="162.83" x2="315.54" y2="78.59" xlink:href="#_Безымянный_градиент_797"/>
    <linearGradient id="_Безымянный_градиент_797-36" data-name="Безымянный градиент 797" x1="180.79" y1="171.36" x2="320.67" y2="87.12" xlink:href="#_Безымянный_градиент_797"/>
    <linearGradient id="_Безымянный_градиент_797-37" data-name="Безымянный градиент 797" x1="185.74" y1="179.57" x2="325.62" y2="95.32" xlink:href="#_Безымянный_градиент_797"/>
    <linearGradient id="_Безымянный_градиент_797-38" data-name="Безымянный градиент 797" x1="126.51" y1="81.23" x2="266.39" y2="-3.02" xlink:href="#_Безымянный_градиент_797"/>
    <linearGradient id="_Безымянный_градиент_797-39" data-name="Безымянный градиент 797" x1="129.69" y1="86.51" x2="269.57" y2="2.26" xlink:href="#_Безымянный_градиент_797"/>
    <linearGradient id="_Безымянный_градиент_797-40" data-name="Безымянный градиент 797" x1="132.72" y1="91.55" x2="272.6" y2="7.3" xlink:href="#_Безымянный_градиент_797"/>
    <linearGradient id="_Безымянный_градиент_797-41" data-name="Безымянный градиент 797" x1="134.94" y1="95.23" x2="274.82" y2="10.98" xlink:href="#_Безымянный_градиент_797"/>
    <linearGradient id="_Безымянный_градиент_797-42" data-name="Безымянный градиент 797" x1="137.58" y1="99.6" x2="277.45" y2="15.36" xlink:href="#_Безымянный_градиент_797"/>
    <linearGradient id="_Безымянный_градиент_797-43" data-name="Безымянный градиент 797" x1="140.2" y1="103.97" x2="280.08" y2="19.72" xlink:href="#_Безымянный_градиент_797"/>
    <linearGradient id="_Безымянный_градиент_797-44" data-name="Безымянный градиент 797" x1="144.56" y1="111.2" x2="284.44" y2="26.96" xlink:href="#_Безымянный_градиент_797"/>
    <linearGradient id="_Безымянный_градиент_797-45" data-name="Безымянный градиент 797" x1="147.77" y1="116.53" x2="287.65" y2="32.29" xlink:href="#_Безымянный_градиент_797"/>
    <linearGradient id="_Безымянный_градиент_797-46" data-name="Безымянный градиент 797" x1="150.45" y1="120.98" x2="290.33" y2="36.73" xlink:href="#_Безымянный_градиент_797"/>
    <linearGradient id="_Безымянный_градиент_797-47" data-name="Безымянный градиент 797" x1="154.65" y1="127.96" x2="294.53" y2="43.71" xlink:href="#_Безымянный_градиент_797"/>
    <linearGradient id="_Безымянный_градиент_797-48" data-name="Безымянный градиент 797" x1="158.68" y1="134.64" x2="298.56" y2="50.39" xlink:href="#_Безымянный_градиент_797"/>
    <linearGradient id="_Безымянный_градиент_797-49" data-name="Безымянный градиент 797" x1="162.92" y1="141.68" x2="302.8" y2="57.43" xlink:href="#_Безымянный_градиент_797"/>
    <linearGradient id="_Безымянный_градиент_797-50" data-name="Безымянный градиент 797" x1="166.38" y1="147.42" x2="306.26" y2="63.18" xlink:href="#_Безымянный_градиент_797"/>
    <linearGradient id="_Безымянный_градиент_797-51" data-name="Безымянный градиент 797" x1="169.63" y1="152.83" x2="309.51" y2="68.59" xlink:href="#_Безымянный_градиент_797"/>
    <linearGradient id="_Безымянный_градиент_797-52" data-name="Безымянный градиент 797" x1="174.52" y1="160.94" x2="314.4" y2="76.69" xlink:href="#_Безымянный_градиент_797"/>
    <linearGradient id="_Безымянный_градиент_797-53" data-name="Безымянный градиент 797" x1="177.18" y1="165.36" x2="317.06" y2="81.11" xlink:href="#_Безымянный_градиент_797"/>
    <linearGradient id="_Безымянный_градиент_797-54" data-name="Безымянный градиент 797" x1="180.02" y1="170.07" x2="319.9" y2="85.83" xlink:href="#_Безымянный_градиент_797"/>
    <linearGradient id="_Безымянный_градиент_797-55" data-name="Безымянный градиент 797" x1="183.86" y1="176.46" x2="323.74" y2="92.21" xlink:href="#_Безымянный_градиент_797"/>
    <linearGradient id="_Безымянный_градиент_797-56" data-name="Безымянный градиент 797" x1="187.58" y1="182.62" x2="327.46" y2="98.38" xlink:href="#_Безымянный_градиент_797"/>
    <linearGradient id="_Безымянный_градиент_797-57" data-name="Безымянный градиент 797" x1="192.08" y1="190.1" x2="331.96" y2="105.86" xlink:href="#_Безымянный_градиент_797"/>
    <linearGradient id="_Безымянный_градиент_797-58" data-name="Безымянный градиент 797" x1="195.54" y1="195.85" x2="335.42" y2="111.61" xlink:href="#_Безымянный_градиент_797"/>
  </defs>
  <g>
    <path class="cls-59" d="M22.12,10.77c-1.39,3.76-.35,8.15,3.02,11.45,4.7,4.6,9.49,9.12,14.23,13.69,7.36,7.1,14.73,14.2,22.07,21.33,2.25,2.19,2.87,4.35,2.05,6.82-11.12-10.7-22.19-21.34-33.61-32.33-.92,4.94.37,8.48,3.55,11.52,8.38,7.99,16.69,16.05,25.03,24.09,1.92,1.85,2.87,4.04,2.46,7.24-7.9-7.57-15.5-14.87-23.39-22.43-.87,4.46.19,7.8,3.09,10.59,5.83,5.61,11.64,11.23,17.47,16.84,1.21,1.17,2.48,2.28,3.92,3.6,2.48-6.62,4.96-12.79,7.07-19.08,1.34-3.99.31-7.76-2.74-10.71-14.74-14.27-29.53-28.47-44.22-42.63Z"/>
    <path class="cls-6" d="M76.79,37.69c-2.68-2.85-5.63-5.45-8.46-8.16-.2.08-.4.16-.6.24.19,1.2.37,2.41.51,3.3-3.04,1.14-6.03,2.25-9.07,3.39-.78-4.81-4.05-8.21-7.56-11.51-1.53-1.44-3.05-2.89-4.56-4.35-3.22-3.09-6.43-6.21-9.66-9.32-1.89,3.74-1.22,7.99,2.22,11.36,1.1,1.08,2.2,2.15,3.3,3.22,5.31,5.17,10.66,10.3,16,15.45,3.1,3,6.23,5.97,9.33,8.95.48-1.97.57-3.9,1.44-5.37.76-1.28,2.3-2.6,3.68-2.83,1.04-.18,2.37,1.32,3.65,2.13,1.3-1.32,1.52-4.65-.21-6.49Z"/>
    <path class="cls-4" d="M45.15,71.12c-.87,3.99-.35,6.84,2.03,9.21,2.35,2.35,4.81,4.58,7.14,6.96,1.47,1.5,2.53,3.23,1.11,6.31-1.76-2.24-3.24-4.13-4.72-6.02-.22.18-.43.37-.65.55,1.66,4.28,3.33,8.55,4.99,12.83.18,0,.37,0,.55.01,1.32-3.67,2.76-7.32,3.93-11.04.7-2.21-.19-4.16-1.8-5.81-4.06-4.17-8.1-8.36-12.57-13Z"/>
  </g>
  <g>
    <polygon class="cls-7" points="53.84 119.44 56.86 116.45 60.78 117.72 58.72 114.42 60.4 111.94 56.65 112.11 54.21 109.71 53.8 112.66 50.02 113.87 53.63 115.45 53.84 119.44"/>
    <polygon class="cls-8" points="47.85 119.26 46.19 117.01 45.08 120.23 41.77 121.88 44.42 123.11 44.27 127.12 47.06 124.17 50.97 125.1 49.2 121.58 51.76 118.36 47.85 119.26"/>
    <polygon class="cls-1" points="41.05 117.94 42.82 114.69 45.83 114.03 44.3 112.47 45.8 109.97 43.27 111.71 42.07 111.29 41.26 113.31 39.27 115.41 40.96 115.14 41.05 117.94"/>
    <polygon class="cls-5" points="51.46 107.16 49.37 106.86 49.11 108.12 46.39 109.7 49.18 109.58 49.76 111.75 51.77 109.33 55.49 109.16 53.14 107.77 54.37 106.32 51.46 107.16"/>
    <polygon class="cls-58" points="38.86 124.28 37.63 122.53 37.61 125.7 36.68 127.42 37.93 128.19 38.75 131.5 39.35 128.66 41.8 128.91 40.05 126.05 40.84 122.55 38.86 124.28"/>
    <polygon class="cls-3" points="47.29 132.92 44.55 134.01 42.43 131.43 42.8 134.97 41.43 135.99 43.55 137.48 44.8 140.51 45.69 138.48 48.67 139.25 46.36 136.36 47.29 132.92"/>
    <polygon class="cls-2" points="55.12 129.47 53.21 125.51 51.79 129.77 48.13 130.45 50.93 133.03 50.62 137.11 53.81 134.94 57.61 137.02 56.4 132.71 59.47 129.66 55.12 129.47"/>
    <polygon class="cls-39" points="64.55 121.08 62.33 117.06 61.16 121.27 56.82 121.97 60.27 124.69 59.72 128.98 63.31 126.48 66.7 128.24 65.69 124.17 68.24 121.21 64.55 121.08"/>
    <polygon class="cls-41" points="62.19 109.43 59.6 110.45 63.2 111.44 64.7 114.46 65.81 112.11 68.64 112.98 66.2 110.59 66.08 109.02 64 109.09 61.15 107.57 62.19 109.43"/>
    <path class="cls-37" d="M71.42,115.84l-1.76.6-2.61-2.47,1.04,3.43-2.42,1.47,3.26,1.16,1.21,3.91s.92-2.32,1.04-3.26l2.01.51-1.69-2.78-.07-2.59Z"/>
    <path class="cls-40" d="M36.23,123.55l.81-2.77,1.49-.49-.7-1.73,1.17-2.81-1.56,1.75-.04-.6c-.49.87-1.41,3.88-1.41,3.88l.26-.04-.02,2.81Z"/>
    <path class="cls-42" d="M36.25,129.66l-.09-2.79-.6,1.04c.13,2.15.7,3.15.7,3.15l.85.66-.87-2.07Z"/>
    <path class="cls-43" d="M39.15,135.78l-.15-1.77-.83.38-1.21-1.7s1.17,3.67,2.75,5.24l.06-.34,1.28.96-1.9-2.77Z"/>
    <path class="cls-44" d="M43.88,140.51l-1.34-.06-1.94-1.7s3.35,3.88,5.5,4.33l-2.09-1.43-.13-1.13Z"/>
    <path class="cls-38" d="M43.96,109.79l-.46-.15.95-1.1c-.41.27-.79.55-1.14.83-2.1,1.7-3.08,3.47-3.08,3.47,1.2-1.9,3.74-3.05,3.74-3.05Z"/>
    <path class="cls-36" d="M47.04,107.98c1.91-1.73,4.46-1.91,4.46-1.91-2.62-.25-5.59,1.58-5.59,1.58l1.08-.32.05.65Z"/>
    <path class="cls-35" d="M57.81,106.55l1.16,1.58,1.33-1.19c.93.02,2.67.5,2.67.5-.32-.37-2.26-1.1-2.26-1.1l.27-.4c-.48-.27-4.23-.66-4.23-.66l.25.58c-1.23.07-2.22.5-2.22.5,1.13-.05,3.04.2,3.04.2Z"/>
    <path class="cls-22" d="M70.12,112.45l.04-.84.99.77c-.62-.86-4.39-4.04-4.39-4.04l.64.91-.71-.04c2.07.71,3.44,3.24,3.44,3.24Z"/>
    <path class="cls-24" d="M75.41,119.03c-.71-2.16-3.26-5.19-3.26-5.19l1.03,1.95-.68.75c2.24,1.21,2.7,3.97,2.7,3.97.06-.77-.08-1.71-.08-1.71l.29.24Z"/>
  </g>
  <g>
    <path class="cls-20" d="M100.77,66.83v-.57c0-5.9,3.85-10.2,10.03-10.2s10.06,4.3,10.06,10.2v.57c0,5.9-3.85,10.2-10.06,10.2s-10.03-4.3-10.03-10.2ZM105.1,54.26v-4.39h4.5v4.39h-4.5ZM115.87,66.83v-.57c0-3.82-1.8-6.24-5.07-6.24s-5.05,2.42-5.05,6.24v.57c0,3.82,1.82,6.24,5.05,6.24s5.07-2.42,5.07-6.24ZM112.05,54.26v-4.39h4.5v4.39h-4.5Z"/>
    <path class="cls-26" d="M122.06,70.05h4.76c.28,2.14,1.82,3.22,4.22,3.22,2.14,0,3.39-.8,3.39-2.17v-.11c0-1.37-.91-1.97-4.73-2.65-4.87-.88-6.95-2.71-6.95-6.04v-.2c0-3.71,3.31-6.04,7.87-6.04s7.92,2.31,8.27,6.55h-4.76c-.2-1.91-1.48-2.82-3.59-2.82s-3.02.91-3.02,2.11v.09c0,1.17.57,1.82,4.42,2.45,4.65.77,7.3,2.51,7.3,6.01v.23c0,3.93-3.48,6.36-8.29,6.36-5.36,0-8.58-2.62-8.86-6.98Z"/>
    <path class="cls-28" d="M145.23,76.66v-16.33h-5.59v-3.9h15.96v3.9h-5.56v16.33h-4.82Z"/>
    <path class="cls-27" d="M157.69,76.66v-20.24h14.93v3.9h-10.2v4.13h9.15v3.79h-9.15v4.5h10.43v3.9h-15.16Z"/>
    <path class="cls-23" d="M175.19,76.66v-20.24h9.18c4.3,0,7.52,2.28,7.52,6.55v.29c0,3.08-1.62,5.1-4.16,6.01l4.76,7.38h-5.27l-4.22-6.84h-3.05v6.84h-4.76ZM179.95,65.91h3.91c1.82,0,3.08-.8,3.08-2.65v-.29c0-1.85-1.25-2.65-3.08-2.65h-3.91v5.59Z"/>
    <path class="cls-25" d="M194.17,76.66v-20.24h9.18c4.3,0,7.52,2.28,7.52,6.55v.29c0,3.08-1.62,5.1-4.16,6.01l4.76,7.38h-5.27l-4.22-6.84h-3.05v6.84h-4.76ZM198.93,65.91h3.91c1.82,0,3.08-.8,3.08-2.65v-.29c0-1.85-1.25-2.65-3.08-2.65h-3.91v5.59Z"/>
    <path class="cls-21" d="M213.15,76.66v-20.24h14.93v3.9h-10.2v4.13h9.15v3.79h-9.15v4.5h10.43v3.9h-15.16Z"/>
    <path class="cls-14" d="M230.8,76.66v-20.24h4.85v20.24h-4.85Z"/>
    <path class="cls-12" d="M238.06,66.83v-.57c0-5.96,3.93-10.2,9.98-10.2,5.24,0,8.72,3.28,9.01,8.21h-4.85c-.2-2.71-1.8-4.25-4.25-4.25-3.16,0-4.9,2.51-4.9,6.24v.57c0,3.73,1.77,6.21,4.93,6.21,2.45,0,4.08-1.6,4.19-4.42h4.85c-.26,5.04-3.62,8.41-9.01,8.41-6.16,0-9.95-4.25-9.95-10.2Z"/>
    <path class="cls-9" d="M259.16,76.66v-20.24h4.82v7.89h8.1v-7.89h4.82v20.24h-4.82v-8.41h-8.1v8.41h-4.82Z"/>
    <path class="cls-10" d="M279.88,76.66v-20.24h4.85v20.24h-4.85Z"/>
    <path class="cls-13" d="M287,70.05h4.76c.28,2.14,1.82,3.22,4.22,3.22,2.14,0,3.39-.8,3.39-2.17v-.11c0-1.37-.91-1.97-4.73-2.65-4.87-.88-6.95-2.71-6.95-6.04v-.2c0-3.71,3.31-6.04,7.87-6.04s7.92,2.31,8.27,6.55h-4.76c-.2-1.91-1.48-2.82-3.59-2.82s-3.02.91-3.02,2.11v.09c0,1.17.57,1.82,4.42,2.45,4.65.77,7.3,2.51,7.3,6.01v.23c0,3.93-3.48,6.36-8.29,6.36-5.36,0-8.58-2.62-8.86-6.98Z"/>
    <path class="cls-16" d="M305.59,66.83v-.57c0-5.96,3.93-10.2,9.98-10.2,5.24,0,8.72,3.28,9.01,8.21h-4.85c-.2-2.71-1.8-4.25-4.25-4.25-3.16,0-4.9,2.51-4.9,6.24v.57c0,3.73,1.77,6.21,4.93,6.21,2.45,0,4.08-1.6,4.19-4.42h4.85c-.26,5.04-3.62,8.41-9.01,8.41-6.16,0-9.95-4.25-9.95-10.2Z"/>
    <path class="cls-11" d="M326.68,76.66v-20.24h4.82v7.89h8.1v-7.89h4.82v20.24h-4.82v-8.41h-8.1v8.41h-4.82Z"/>
    <path class="cls-18" d="M347.26,76.66v-20.24h14.93v3.9h-10.2v4.13h9.15v3.79h-9.15v4.5h10.43v3.9h-15.16Z"/>
    <path class="cls-15" d="M364.76,76.66v-20.24h9.18c4.3,0,7.52,2.28,7.52,6.55v.29c0,3.08-1.62,5.1-4.16,6.01l4.76,7.38h-5.27l-4.22-6.84h-3.05v6.84h-4.76ZM369.52,65.91h3.91c1.82,0,3.08-.8,3.08-2.65v-.29c0-1.85-1.25-2.65-3.08-2.65h-3.91v5.59Z"/>
  </g>
  <g>
    <path class="cls-19" d="M104.6,98.99v-15.96h.94v9.24l8.9-9.24h1.26l-6.65,6.86,6.88,9.11h-1.17l-6.38-8.43-2.83,2.92v5.51h-.94Z"/>
    <path class="cls-17" d="M118,98.99v-15.96h.94v15.11h7.49v.85h-8.43Z"/>
    <path class="cls-57" d="M128.66,98.99v-15.96h9.87v.85h-8.93v6.5h8.14v.85h-8.14v6.9h8.97v.85h-9.92Z"/>
    <path class="cls-30" d="M141.48,98.99v-15.96h.94v15.96h-.94Z"/>
    <path class="cls-32" d="M145.95,98.99v-15.96h1.08l9.76,14.48v-14.48h.94v15.96h-1.03l-9.8-14.57v14.57h-.94Z"/>
    <path class="cls-31" d="M161.25,98.99v-15.96h9.29v.85h-8.34v6.54h7.49v.85h-7.49v7.71h-.94Z"/>
    <path class="cls-29" d="M173.14,98.99v-15.96h9.87v.85h-8.93v6.5h8.14v.85h-8.14v6.9h8.97v.85h-9.92Z"/>
    <path class="cls-55" d="M185.94,98.99v-15.96h.94v15.11h7.49v.85h-8.43Z"/>
    <path class="cls-54" d="M196.59,98.99v-15.96h4.77c4.41,0,7.44,2.68,7.44,7.62v.72c0,4.92-3.01,7.62-7.44,7.62h-4.77ZM197.54,98.14h3.67c4.14,0,6.61-2.38,6.61-6.77v-.72c0-4.39-2.45-6.77-6.61-6.77h-3.67v14.26Z"/>
    <path class="cls-33" d="M215.53,98.99v-15.96h9.29v.85h-8.34v6.54h7.49v.85h-7.49v7.71h-.94Z"/>
    <path class="cls-56" d="M226.95,93.12v-10.09h.94v10.05c0,3.53,1.84,5.28,4.95,5.28s4.95-1.78,4.95-5.31v-10.03h.94v10.09c0,3.78-2.02,6.14-5.89,6.14s-5.89-2.36-5.89-6.14Z"/>
    <path class="cls-34" d="M241.05,94.25h.99c.25,2.92,2.38,4.14,5.01,4.14s4.59-1.28,4.59-3.46v-.2c0-2.16-1.96-2.97-4.88-3.44-3.35-.54-5.1-1.69-5.1-4.07v-.22c0-2.34,2.07-4.23,5.13-4.23,2.9,0,5.1,1.51,5.51,4.47h-.99c-.36-2.38-2.07-3.6-4.52-3.6s-4.18,1.35-4.18,3.35v.2c0,2,1.66,2.77,4.41,3.22,3.33.56,5.58,1.6,5.58,4.27v.22c0,2.56-2.25,4.36-5.58,4.36s-5.78-1.69-5.96-5.01Z"/>
    <path class="cls-51" d="M254.05,94.25h.99c.25,2.92,2.38,4.14,5.01,4.14s4.59-1.28,4.59-3.46v-.2c0-2.16-1.96-2.97-4.88-3.44-3.35-.54-5.1-1.69-5.1-4.07v-.22c0-2.34,2.07-4.23,5.13-4.23,2.9,0,5.1,1.51,5.51,4.47h-.99c-.36-2.38-2.07-3.6-4.52-3.6s-4.18,1.35-4.18,3.35v.2c0,2,1.66,2.77,4.41,3.22,3.33.56,5.58,1.6,5.58,4.27v.22c0,2.56-2.25,4.36-5.58,4.36s-5.78-1.69-5.96-5.01Z"/>
    <path class="cls-47" d="M268.24,98.99v-15.96h5.64c2.83,0,4.83,1.17,4.83,3.89v.25c0,1.96-1.33,2.95-2.43,3.35,1.73.4,3.19,1.73,3.19,3.91v.29c0,2.72-2.02,4.27-4.99,4.27h-6.25ZM269.18,90.2h4.81c2.25,0,3.76-1.03,3.76-3.04v-.25c0-2.05-1.42-3.04-3.85-3.04h-4.72v6.32ZM269.18,98.14h5.4c2.32,0,3.96-1.21,3.96-3.42v-.29c0-2.2-1.6-3.4-4.09-3.4h-5.26v7.1Z"/>
    <path class="cls-48" d="M293.31,98.99l-2-5.04h-7.76l-2,5.04h-.97l6.36-15.96h1.01l6.34,15.96h-.99ZM283.89,93.1h7.08l-3.53-8.93-3.55,8.93Z"/>
    <path class="cls-45" d="M296.42,98.99v-15.96h.94v15.11h7.49v.85h-8.43Z"/>
    <path class="cls-46" d="M307.08,98.99v-15.96h.94v15.11h7.49v.85h-8.43Z"/>
    <path class="cls-52" d="M321.69,98.99v-15.96h5.64c2.83,0,4.83,1.17,4.83,3.89v.25c0,1.96-1.33,2.95-2.43,3.35,1.73.4,3.19,1.73,3.19,3.91v.29c0,2.72-2.02,4.27-4.99,4.27h-6.25ZM322.64,90.2h4.81c2.25,0,3.76-1.03,3.76-3.04v-.25c0-2.05-1.42-3.04-3.85-3.04h-4.72v6.32ZM322.64,98.14h5.4c2.32,0,3.96-1.21,3.96-3.42v-.29c0-2.2-1.6-3.4-4.09-3.4h-5.26v7.1Z"/>
    <path class="cls-53" d="M335.52,93.12v-10.09h.94v10.05c0,3.53,1.84,5.28,4.95,5.28s4.95-1.78,4.95-5.31v-10.03h.94v10.09c0,3.78-2.02,6.14-5.89,6.14s-5.89-2.36-5.89-6.14Z"/>
    <path class="cls-49" d="M350.72,98.99v-15.96h1.08l9.76,14.48v-14.48h.94v15.96h-1.03l-9.8-14.57v14.57h-.94Z"/>
    <path class="cls-50" d="M366.02,98.99v-15.96h4.77c4.41,0,7.44,2.68,7.44,7.62v.72c0,4.92-3.01,7.62-7.44,7.62h-4.77ZM366.96,98.14h3.67c4.14,0,6.61-2.38,6.61-6.77v-.72c0-4.39-2.45-6.77-6.61-6.77h-3.67v14.26Z"/>
  </g>
</svg>