<?xml version="1.0" encoding="UTF-8"?>
<svg id="Ebene_1" data-name="Ebene 1" xmlns="http://www.w3.org/2000/svg" viewBox="0 0 161.28 244.12">
  <defs>
    <style>
      .cls-1 {
        fill: #000;
        stroke-width: 0px;
      }
    </style>
  </defs>
  <g>
    <path class="cls-1" d="M35.61,15.18c-1.78,4.81-.45,10.42,3.86,14.64,6.01,5.89,12.13,11.67,18.19,17.51,9.42,9.08,18.84,18.15,28.22,27.27,2.88,2.8,3.67,5.57,2.63,8.72-14.22-13.68-28.37-27.29-42.98-41.34-1.18,6.32.48,10.85,4.55,14.73,10.71,10.22,21.34,20.52,32,30.8,2.45,2.36,3.67,5.17,3.15,9.26-10.1-9.68-19.82-19.01-29.91-28.68-1.11,5.71.24,9.98,3.95,13.55,7.45,7.17,14.88,14.37,22.34,21.53,1.55,1.49,3.17,2.91,5.01,4.61,3.17-8.46,6.34-16.35,9.04-24.39,1.72-5.1.39-9.93-3.5-13.69-18.84-18.24-37.76-36.41-56.55-54.51Z"/>
    <path class="cls-1" d="M105.53,49.59c-3.42-3.65-7.19-6.97-10.82-10.43-.26.1-.51.21-.77.31.24,1.54.48,3.08.65,4.21-3.89,1.45-7.71,2.88-11.6,4.34-.99-6.15-5.18-10.5-9.66-14.72-1.95-1.84-3.9-3.7-5.84-5.56-4.12-3.95-8.22-7.94-12.36-11.92-2.41,4.78-1.55,10.21,2.84,14.52,1.4,1.38,2.81,2.75,4.22,4.12,6.79,6.61,13.63,13.18,20.46,19.76,3.97,3.83,7.96,7.64,11.93,11.45.62-2.52.72-4.99,1.84-6.87.97-1.63,2.95-3.32,4.71-3.62,1.33-.23,3.03,1.69,4.67,2.72,1.66-1.69,1.94-5.94-.27-8.3Z"/>
    <path class="cls-1" d="M65.07,92.34c-1.11,5.1-.44,8.75,2.6,11.78,3.01,3,6.15,5.86,9.13,8.89,1.88,1.92,3.23,4.12,1.42,8.07-2.25-2.87-4.15-5.28-6.04-7.7-.28.23-.56.47-.83.7,2.13,5.47,4.25,10.94,6.38,16.41.24,0,.47.01.71.02,1.69-4.7,3.53-9.35,5.02-14.11.89-2.83-.25-5.32-2.31-7.43-5.2-5.33-10.35-10.7-16.08-16.62Z"/>
  </g>
  <g>
    <polygon class="cls-1" points="76.17 154.13 80.04 150.3 85.05 151.93 82.41 147.71 84.57 144.55 79.77 144.77 76.65 141.69 76.13 145.47 71.29 147.01 75.91 149.03 76.17 154.13"/>
    <polygon class="cls-1" points="68.51 153.91 66.39 151.02 64.97 155.14 60.74 157.25 64.12 158.83 63.93 163.95 67.51 160.18 72.51 161.37 70.24 156.87 73.51 152.75 68.51 153.91"/>
    <polygon class="cls-1" points="59.82 152.22 62.09 148.06 65.93 147.22 63.97 145.21 65.89 142.02 62.66 144.25 61.12 143.71 60.09 146.29 57.55 148.98 59.7 148.64 59.82 152.22"/>
    <polygon class="cls-1" points="73.14 138.43 70.46 138.04 70.13 139.65 66.64 141.68 70.22 141.53 70.96 144.3 73.52 141.2 78.29 140.99 75.28 139.21 76.86 137.36 73.14 138.43"/>
    <polygon class="cls-1" points="57.03 160.32 55.45 158.09 55.42 162.13 54.23 164.34 55.83 165.32 56.88 169.55 57.65 165.92 60.78 166.24 58.54 162.58 59.56 158.11 57.03 160.32"/>
    <polygon class="cls-1" points="67.81 171.37 64.29 172.77 61.58 169.46 62.06 173.99 60.3 175.3 63.01 177.2 64.62 181.07 65.75 178.48 69.56 179.47 66.61 175.77 67.81 171.37"/>
    <polygon class="cls-1" points="77.81 166.96 75.37 161.9 73.55 167.35 68.88 168.21 72.45 171.52 72.06 176.73 76.14 173.96 81 176.61 79.45 171.1 83.38 167.2 77.81 166.96"/>
    <polygon class="cls-1" points="89.88 156.23 87.03 151.09 85.54 156.47 79.98 157.37 84.39 160.84 83.7 166.33 88.28 163.14 92.62 165.39 91.33 160.19 94.6 156.4 89.88 156.23"/>
    <polygon class="cls-1" points="86.85 141.34 83.55 142.63 88.15 143.9 90.07 147.76 91.49 144.77 95.1 145.88 91.98 142.82 91.83 140.81 89.17 140.9 85.52 138.96 86.85 141.34"/>
    <path class="cls-1" d="M98.66,149.52l-2.26.77-3.34-3.15,1.33,4.39-3.09,1.89,4.17,1.48,1.55,5.01s1.17-2.97,1.33-4.17l2.57.65-2.16-3.55-.09-3.31Z"/>
    <path class="cls-1" d="M53.65,159.39l1.04-3.54,1.91-.63-.9-2.21,1.5-3.6-1.99,2.23-.05-.76c-.63,1.12-1.8,4.96-1.8,4.96l.33-.05-.03,3.6Z"/>
    <path class="cls-1" d="M53.68,167.21l-.11-3.57-.76,1.34c.16,2.75.9,4.03.9,4.03l1.09.84-1.12-2.64Z"/>
    <path class="cls-1" d="M57.39,175.03l-.19-2.26-1.06.49-1.55-2.18s1.5,4.69,3.51,6.7l.08-.44,1.63,1.23-2.43-3.54Z"/>
    <path class="cls-1" d="M63.44,181.08l-1.72-.08-2.48-2.18s4.28,4.96,7.03,5.53l-2.67-1.83-.16-1.44Z"/>
    <path class="cls-1" d="M63.54,141.79l-.59-.2,1.21-1.41c-.53.35-1.01.7-1.46,1.07-2.69,2.17-3.94,4.44-3.94,4.44,1.54-2.42,4.78-3.9,4.78-3.9Z"/>
    <path class="cls-1" d="M67.47,139.47c2.44-2.21,5.71-2.44,5.71-2.44-3.35-.32-7.15,2.02-7.15,2.02l1.38-.4.06.83Z"/>
    <path class="cls-1" d="M81.25,137.65l1.49,2.02,1.7-1.53c1.19.02,3.42.64,3.42.64-.4-.47-2.89-1.4-2.89-1.4l.34-.51c-.62-.34-5.41-.85-5.41-.85l.32.74c-1.57.08-2.84.64-2.84.64,1.44-.06,3.88.25,3.88.25Z"/>
    <path class="cls-1" d="M97,145.2l.05-1.08,1.26.98c-.8-1.1-5.61-5.17-5.61-5.17l.82,1.17-.91-.05c2.64.91,4.4,4.14,4.4,4.14Z"/>
    <path class="cls-1" d="M103.76,153.61c-.91-2.76-4.16-6.64-4.16-6.64l1.32,2.49-.87.96c2.87,1.55,3.45,5.07,3.45,5.07.07-.98-.11-2.19-.11-2.19l.37.3Z"/>
  </g>
  <g>
    <path class="cls-1" d="M12.56,205.25v-.28c0-2.89,1.88-5,4.91-5s4.93,2.11,4.93,5v.28c0,2.89-1.88,5-4.93,5s-4.91-2.11-4.91-5ZM14.68,199.1v-2.15h2.21v2.15h-2.21ZM19.96,205.25v-.28c0-1.87-.88-3.06-2.49-3.06s-2.47,1.19-2.47,3.06v.28c0,1.87.89,3.06,2.47,3.06s2.49-1.19,2.49-3.06ZM18.09,199.1v-2.15h2.21v2.15h-2.21Z"/>
    <path class="cls-1" d="M22.98,206.83h2.33c.14,1.05.89,1.58,2.07,1.58,1.05,0,1.66-.39,1.66-1.06v-.06c0-.67-.45-.96-2.32-1.3-2.39-.43-3.41-1.33-3.41-2.96v-.1c0-1.81,1.62-2.96,3.85-2.96s3.88,1.13,4.05,3.21h-2.33c-.1-.94-.73-1.38-1.76-1.38s-1.48.45-1.48,1.03v.04c0,.57.28.89,2.16,1.2,2.28.38,3.57,1.23,3.57,2.95v.11c0,1.93-1.7,3.11-4.06,3.11-2.62,0-4.2-1.28-4.34-3.42Z"/>
    <path class="cls-1" d="M34.33,210.07v-8h-2.74v-1.91h7.82v1.91h-2.72v8h-2.36Z"/>
    <path class="cls-1" d="M40.43,210.07v-9.91h7.32v1.91h-5v2.02h4.48v1.86h-4.48v2.21h5.11v1.91h-7.43Z"/>
    <path class="cls-1" d="M49,210.07v-9.91h4.5c2.11,0,3.69,1.12,3.69,3.21v.14c0,1.51-.8,2.5-2.04,2.95l2.33,3.62h-2.58l-2.07-3.35h-1.49v3.35h-2.33ZM51.33,204.81h1.91c.89,0,1.51-.39,1.51-1.3v-.14c0-.91-.61-1.3-1.51-1.3h-1.91v2.74Z"/>
    <path class="cls-1" d="M58.29,210.07v-9.91h4.5c2.11,0,3.69,1.12,3.69,3.21v.14c0,1.51-.8,2.5-2.04,2.95l2.33,3.62h-2.58l-2.07-3.35h-1.49v3.35h-2.33ZM60.62,204.81h1.91c.89,0,1.51-.39,1.51-1.3v-.14c0-.91-.61-1.3-1.51-1.3h-1.91v2.74Z"/>
    <path class="cls-1" d="M67.59,210.07v-9.91h7.32v1.91h-5v2.02h4.48v1.86h-4.48v2.21h5.11v1.91h-7.43Z"/>
    <path class="cls-1" d="M76.23,210.07v-9.91h2.37v9.91h-2.37Z"/>
    <path class="cls-1" d="M79.79,205.25v-.28c0-2.92,1.93-5,4.89-5,2.57,0,4.27,1.61,4.41,4.02h-2.37c-.1-1.33-.88-2.08-2.08-2.08-1.55,0-2.4,1.23-2.4,3.06v.28c0,1.83.87,3.04,2.42,3.04,1.2,0,2-.78,2.05-2.16h2.37c-.12,2.47-1.77,4.12-4.41,4.12-3.02,0-4.87-2.08-4.87-5Z"/>
    <path class="cls-1" d="M90.11,210.07v-9.91h2.36v3.87h3.96v-3.87h2.36v9.91h-2.36v-4.12h-3.96v4.12h-2.36Z"/>
    <path class="cls-1" d="M100.26,210.07v-9.91h2.37v9.91h-2.37Z"/>
    <path class="cls-1" d="M103.75,206.83h2.33c.14,1.05.89,1.58,2.07,1.58,1.05,0,1.66-.39,1.66-1.06v-.06c0-.67-.45-.96-2.32-1.3-2.39-.43-3.41-1.33-3.41-2.96v-.1c0-1.81,1.62-2.96,3.85-2.96s3.88,1.13,4.05,3.21h-2.33c-.1-.94-.73-1.38-1.76-1.38s-1.48.45-1.48,1.03v.04c0,.57.28.89,2.16,1.2,2.28.38,3.57,1.23,3.57,2.95v.11c0,1.93-1.7,3.11-4.06,3.11-2.62,0-4.2-1.28-4.34-3.42Z"/>
    <path class="cls-1" d="M112.85,205.25v-.28c0-2.92,1.93-5,4.89-5,2.57,0,4.27,1.61,4.41,4.02h-2.37c-.1-1.33-.88-2.08-2.08-2.08-1.55,0-2.4,1.23-2.4,3.06v.28c0,1.83.87,3.04,2.42,3.04,1.2,0,2-.78,2.05-2.16h2.37c-.12,2.47-1.77,4.12-4.41,4.12-3.02,0-4.87-2.08-4.87-5Z"/>
    <path class="cls-1" d="M123.18,210.07v-9.91h2.36v3.87h3.96v-3.87h2.36v9.91h-2.36v-4.12h-3.96v4.12h-2.36Z"/>
    <path class="cls-1" d="M133.25,210.07v-9.91h7.32v1.91h-5v2.02h4.48v1.86h-4.48v2.21h5.11v1.91h-7.43Z"/>
    <path class="cls-1" d="M141.82,210.07v-9.91h4.5c2.11,0,3.69,1.12,3.69,3.21v.14c0,1.51-.8,2.5-2.04,2.95l2.33,3.62h-2.58l-2.07-3.35h-1.49v3.35h-2.33ZM144.15,204.81h1.91c.89,0,1.51-.39,1.51-1.3v-.14c0-.91-.61-1.3-1.51-1.3h-1.91v2.74Z"/>
  </g>
  <g>
    <path class="cls-1" d="M14.44,221v-7.82h.46v4.53l4.36-4.53h.62l-3.26,3.36,3.37,4.46h-.57l-3.13-4.13-1.39,1.43v2.7h-.46Z"/>
    <path class="cls-1" d="M21,221v-7.82h.46v7.4h3.67v.42h-4.13Z"/>
    <path class="cls-1" d="M26.22,221v-7.82h4.84v.42h-4.37v3.18h3.99v.42h-3.99v3.38h4.4v.42h-4.86Z"/>
    <path class="cls-1" d="M32.5,221v-7.82h.46v7.82h-.46Z"/>
    <path class="cls-1" d="M34.69,221v-7.82h.53l4.78,7.09v-7.09h.46v7.82h-.51l-4.8-7.14v7.14h-.46Z"/>
    <path class="cls-1" d="M42.17,221v-7.82h4.55v.42h-4.09v3.21h3.67v.42h-3.67v3.78h-.46Z"/>
    <path class="cls-1" d="M48,221v-7.82h4.84v.42h-4.37v3.18h3.99v.42h-3.99v3.38h4.4v.42h-4.86Z"/>
    <path class="cls-1" d="M54.26,221v-7.82h.46v7.4h3.67v.42h-4.13Z"/>
    <path class="cls-1" d="M59.48,221v-7.82h2.34c2.16,0,3.65,1.31,3.65,3.74v.35c0,2.41-1.48,3.73-3.65,3.73h-2.34ZM59.95,220.58h1.8c2.03,0,3.24-1.17,3.24-3.32v-.35c0-2.15-1.2-3.32-3.24-3.32h-1.8v6.98Z"/>
    <path class="cls-1" d="M68.75,221v-7.82h4.55v.42h-4.09v3.21h3.67v.42h-3.67v3.78h-.46Z"/>
    <path class="cls-1" d="M74.35,218.12v-4.95h.46v4.92c0,1.73.9,2.59,2.42,2.59s2.42-.87,2.42-2.6v-4.91h.46v4.95c0,1.85-.99,3.01-2.89,3.01s-2.89-1.16-2.89-3.01Z"/>
    <path class="cls-1" d="M81.25,218.67h.49c.12,1.43,1.17,2.03,2.46,2.03s2.25-.63,2.25-1.7v-.1c0-1.06-.96-1.46-2.39-1.69-1.64-.26-2.5-.83-2.5-1.99v-.11c0-1.15,1.01-2.07,2.51-2.07,1.42,0,2.5.74,2.7,2.19h-.49c-.18-1.17-1.01-1.76-2.21-1.76s-2.05.66-2.05,1.64v.1c0,.98.81,1.36,2.16,1.58,1.63.28,2.73.78,2.73,2.09v.11c0,1.26-1.1,2.14-2.73,2.14s-2.83-.83-2.92-2.46Z"/>
    <path class="cls-1" d="M87.61,218.67h.49c.12,1.43,1.17,2.03,2.46,2.03s2.25-.63,2.25-1.7v-.1c0-1.06-.96-1.46-2.39-1.69-1.64-.26-2.5-.83-2.5-1.99v-.11c0-1.15,1.01-2.07,2.51-2.07,1.42,0,2.5.74,2.7,2.19h-.48c-.18-1.17-1.01-1.76-2.21-1.76s-2.05.66-2.05,1.64v.1c0,.98.81,1.36,2.16,1.58,1.63.28,2.73.78,2.73,2.09v.11c0,1.26-1.1,2.14-2.73,2.14s-2.83-.83-2.92-2.46Z"/>
    <path class="cls-1" d="M94.56,221v-7.82h2.77c1.39,0,2.37.57,2.37,1.91v.12c0,.96-.65,1.44-1.19,1.64.85.2,1.56.85,1.56,1.92v.14c0,1.33-.99,2.09-2.45,2.09h-3.06ZM95.03,216.69h2.36c1.1,0,1.84-.51,1.84-1.49v-.12c0-1-.69-1.49-1.88-1.49h-2.31v3.1ZM95.03,220.58h2.64c1.13,0,1.94-.59,1.94-1.67v-.14c0-1.08-.78-1.66-2-1.66h-2.58v3.48Z"/>
    <path class="cls-1" d="M106.84,221l-.98-2.47h-3.8l-.98,2.47h-.47l3.12-7.82h.5l3.11,7.82h-.48ZM102.23,218.11h3.47l-1.73-4.37-1.74,4.37Z"/>
    <path class="cls-1" d="M108.36,221v-7.82h.46v7.4h3.67v.42h-4.13Z"/>
    <path class="cls-1" d="M113.58,221v-7.82h.46v7.4h3.67v.42h-4.13Z"/>
    <path class="cls-1" d="M120.74,221v-7.82h2.77c1.39,0,2.37.57,2.37,1.91v.12c0,.96-.65,1.44-1.19,1.64.85.2,1.56.85,1.56,1.92v.14c0,1.33-.99,2.09-2.45,2.09h-3.06ZM121.2,216.69h2.36c1.1,0,1.84-.51,1.84-1.49v-.12c0-1-.69-1.49-1.88-1.49h-2.31v3.1ZM121.2,220.58h2.64c1.13,0,1.94-.59,1.94-1.67v-.14c0-1.08-.78-1.66-2-1.66h-2.58v3.48Z"/>
    <path class="cls-1" d="M127.51,218.12v-4.95h.46v4.92c0,1.73.9,2.59,2.42,2.59s2.42-.87,2.42-2.6v-4.91h.46v4.95c0,1.85-.99,3.01-2.89,3.01s-2.89-1.16-2.89-3.01Z"/>
    <path class="cls-1" d="M134.95,221v-7.82h.53l4.78,7.09v-7.09h.46v7.82h-.51l-4.8-7.14v7.14h-.46Z"/>
    <path class="cls-1" d="M142.44,221v-7.82h2.34c2.16,0,3.65,1.31,3.65,3.74v.35c0,2.41-1.48,3.73-3.65,3.73h-2.34ZM142.9,220.58h1.8c2.03,0,3.24-1.17,3.24-3.32v-.35c0-2.15-1.2-3.32-3.24-3.32h-1.8v6.98Z"/>
  </g>
</svg>