<?xml version="1.0" encoding="UTF-8"?>
<svg id="Ebene_1" data-name="Ebene 1" xmlns="http://www.w3.org/2000/svg" xmlns:xlink="http://www.w3.org/1999/xlink" viewBox="0 0 161.28 246.01">
  <defs>
    <style>
      .cls-1 {
        fill: url(#_Безымянный_градиент_797-6);
      }

      .cls-1, .cls-2, .cls-3, .cls-4, .cls-5, .cls-6, .cls-7, .cls-8, .cls-9, .cls-10, .cls-11, .cls-12, .cls-13, .cls-14, .cls-15, .cls-16, .cls-17, .cls-18, .cls-19, .cls-20, .cls-21, .cls-22, .cls-23, .cls-24, .cls-25, .cls-26, .cls-27, .cls-28, .cls-29, .cls-30, .cls-31, .cls-32, .cls-33, .cls-34, .cls-35, .cls-36, .cls-37, .cls-38, .cls-39, .cls-40, .cls-41, .cls-42, .cls-43, .cls-44, .cls-45, .cls-46, .cls-47, .cls-48, .cls-49, .cls-50, .cls-51, .cls-52, .cls-53, .cls-54, .cls-55, .cls-56, .cls-57, .cls-58, .cls-59 {
        stroke-width: 0px;
      }

      .cls-2 {
        fill: url(#_Безымянный_градиент_797-9);
      }

      .cls-3 {
        fill: url(#_Безымянный_градиент_797-8);
      }

      .cls-4 {
        fill: url(#_Безымянный_градиент_797-3);
      }

      .cls-5 {
        fill: url(#_Безымянный_градиент_797-7);
      }

      .cls-6 {
        fill: url(#_Безымянный_градиент_797-2);
      }

      .cls-7 {
        fill: url(#_Безымянный_градиент_797-4);
      }

      .cls-8 {
        fill: url(#_Безымянный_градиент_797-5);
      }

      .cls-9 {
        fill: url(#_Безымянный_градиент_797-31);
      }

      .cls-10 {
        fill: url(#_Безымянный_градиент_797-32);
      }

      .cls-11 {
        fill: url(#_Безымянный_градиент_797-35);
      }

      .cls-12 {
        fill: url(#_Безымянный_градиент_797-30);
      }

      .cls-13 {
        fill: url(#_Безымянный_градиент_797-33);
      }

      .cls-14 {
        fill: url(#_Безымянный_градиент_797-29);
      }

      .cls-15 {
        fill: url(#_Безымянный_градиент_797-37);
      }

      .cls-16 {
        fill: url(#_Безымянный_градиент_797-34);
      }

      .cls-17 {
        fill: url(#_Безымянный_градиент_797-39);
      }

      .cls-18 {
        fill: url(#_Безымянный_градиент_797-36);
      }

      .cls-19 {
        fill: url(#_Безымянный_градиент_797-38);
      }

      .cls-20 {
        fill: url(#_Безымянный_градиент_797-22);
      }

      .cls-21 {
        fill: url(#_Безымянный_градиент_797-28);
      }

      .cls-22 {
        fill: url(#_Безымянный_градиент_797-20);
      }

      .cls-23 {
        fill: url(#_Безымянный_градиент_797-26);
      }

      .cls-24 {
        fill: url(#_Безымянный_градиент_797-21);
      }

      .cls-25 {
        fill: url(#_Безымянный_градиент_797-27);
      }

      .cls-26 {
        fill: url(#_Безымянный_градиент_797-23);
      }

      .cls-27 {
        fill: url(#_Безымянный_градиент_797-25);
      }

      .cls-28 {
        fill: url(#_Безымянный_градиент_797-24);
      }

      .cls-29 {
        fill: url(#_Безымянный_градиент_797-44);
      }

      .cls-30 {
        fill: url(#_Безымянный_градиент_797-41);
      }

      .cls-31 {
        fill: url(#_Безымянный_градиент_797-43);
      }

      .cls-32 {
        fill: url(#_Безымянный_градиент_797-42);
      }

      .cls-33 {
        fill: url(#_Безымянный_градиент_797-47);
      }

      .cls-34 {
        fill: url(#_Безымянный_градиент_797-49);
      }

      .cls-35 {
        fill: url(#_Безымянный_градиент_797-19);
      }

      .cls-36 {
        fill: url(#_Безымянный_градиент_797-18);
      }

      .cls-37 {
        fill: url(#_Безымянный_градиент_797-12);
      }

      .cls-38 {
        fill: url(#_Безымянный_градиент_797-17);
      }

      .cls-39 {
        fill: url(#_Безымянный_градиент_797-10);
      }

      .cls-40 {
        fill: url(#_Безымянный_градиент_797-13);
      }

      .cls-41 {
        fill: url(#_Безымянный_градиент_797-11);
      }

      .cls-42 {
        fill: url(#_Безымянный_градиент_797-14);
      }

      .cls-43 {
        fill: url(#_Безымянный_градиент_797-15);
      }

      .cls-44 {
        fill: url(#_Безымянный_градиент_797-16);
      }

      .cls-45 {
        fill: url(#_Безымянный_градиент_797-53);
      }

      .cls-46 {
        fill: url(#_Безымянный_градиент_797-54);
      }

      .cls-47 {
        fill: url(#_Безымянный_градиент_797-51);
      }

      .cls-48 {
        fill: url(#_Безымянный_градиент_797-52);
      }

      .cls-49 {
        fill: url(#_Безымянный_градиент_797-59);
      }

      .cls-50 {
        fill: url(#_Безымянный_градиент_797-57);
      }

      .cls-51 {
        fill: url(#_Безымянный_градиент_797-58);
      }

      .cls-52 {
        fill: url(#_Безымянный_градиент_797-50);
      }

      .cls-53 {
        fill: url(#_Безымянный_градиент_797-55);
      }

      .cls-54 {
        fill: url(#_Безымянный_градиент_797-56);
      }

      .cls-55 {
        fill: url(#_Безымянный_градиент_797-46);
      }

      .cls-56 {
        fill: url(#_Безымянный_градиент_797-45);
      }

      .cls-57 {
        fill: url(#_Безымянный_градиент_797-48);
      }

      .cls-58 {
        fill: url(#_Безымянный_градиент_797-40);
      }

      .cls-59 {
        fill: url(#_Безымянный_градиент_797);
      }
    </style>
    <linearGradient id="_Безымянный_градиент_797" data-name="Безымянный градиент 797" x1="34.84" y1="60.71" x2="96.39" y2="60.71" gradientUnits="userSpaceOnUse">
      <stop offset="0" stop-color="#adadad"/>
      <stop offset=".03" stop-color="#b9b9b9"/>
      <stop offset=".14" stop-color="#dedede"/>
      <stop offset=".19" stop-color="#ededed"/>
      <stop offset=".3" stop-color="#d6d6d6"/>
      <stop offset=".4" stop-color="#c8c8c8"/>
      <stop offset=".48" stop-color="#c4c4c4"/>
      <stop offset=".61" stop-color="#eaeaea"/>
      <stop offset=".68" stop-color="#fff"/>
      <stop offset=".76" stop-color="#f4f4f4"/>
      <stop offset=".87" stop-color="#e0e0e0"/>
      <stop offset="1" stop-color="#fff"/>
    </linearGradient>
    <linearGradient id="_Безымянный_градиент_797-2" data-name="Безымянный градиент 797" x1="53.81" y1="39.97" x2="107.11" y2="39.97" xlink:href="#_Безымянный_градиент_797"/>
    <linearGradient id="_Безымянный_градиент_797-3" data-name="Безымянный градиент 797" x1="64.56" y1="110.66" x2="83.76" y2="110.66" xlink:href="#_Безымянный_градиент_797"/>
    <linearGradient id="_Безымянный_градиент_797-4" data-name="Безымянный градиент 797" x1="32.38" y1="157.93" x2="103.89" y2="140.4" xlink:href="#_Безымянный_градиент_797"/>
    <linearGradient id="_Безымянный_градиент_797-5" data-name="Безымянный градиент 797" x1="33.96" y1="164.36" x2="105.47" y2="146.84" xlink:href="#_Безымянный_градиент_797"/>
    <linearGradient id="_Безымянный_градиент_797-6" data-name="Безымянный градиент 797" x1="31.43" y1="154.05" x2="102.94" y2="136.52" xlink:href="#_Безымянный_градиент_797"/>
    <linearGradient id="_Безымянный_градиент_797-7" data-name="Безымянный градиент 797" x1="30.5" y1="150.26" x2="102.01" y2="132.73" xlink:href="#_Безымянный_градиент_797"/>
    <linearGradient id="_Безымянный_градиент_797-8" data-name="Безымянный градиент 797" x1="34.91" y1="168.26" x2="106.43" y2="150.73" xlink:href="#_Безымянный_градиент_797"/>
    <linearGradient id="_Безымянный_градиент_797-9" data-name="Безымянный градиент 797" x1="37.95" y1="180.66" x2="109.47" y2="163.13" xlink:href="#_Безымянный_градиент_797"/>
    <linearGradient id="_Безымянный_градиент_797-10" data-name="Безымянный градиент 797" x1="37.42" y1="178.47" x2="108.93" y2="160.95" xlink:href="#_Безымянный_градиент_797"/>
    <linearGradient id="_Безымянный_градиент_797-11" data-name="Безымянный градиент 797" x1="35.53" y1="170.78" x2="107.04" y2="153.25" xlink:href="#_Безымянный_градиент_797"/>
    <linearGradient id="_Безымянный_градиент_797-12" data-name="Безымянный градиент 797" x1="31.98" y1="156.27" x2="103.49" y2="138.74" xlink:href="#_Безымянный_градиент_797"/>
    <linearGradient id="_Безымянный_градиент_797-13" data-name="Безымянный градиент 797" x1="34.74" y1="167.54" x2="106.25" y2="150.01" xlink:href="#_Безымянный_градиент_797"/>
    <linearGradient id="_Безымянный_градиент_797-14" data-name="Безымянный градиент 797" x1="32.69" y1="159.2" x2="104.21" y2="141.67" xlink:href="#_Безымянный_градиент_797"/>
    <linearGradient id="_Безымянный_градиент_797-15" data-name="Безымянный градиент 797" x1="35.48" y1="170.56" x2="106.99" y2="153.03" xlink:href="#_Безымянный_градиент_797"/>
    <linearGradient id="_Безымянный_градиент_797-16" data-name="Безымянный градиент 797" x1="37.52" y1="178.88" x2="109.03" y2="161.35" xlink:href="#_Безымянный_градиент_797"/>
    <linearGradient id="_Безымянный_градиент_797-17" data-name="Безымянный градиент 797" x1="39.39" y1="186.54" x2="110.91" y2="169.01" xlink:href="#_Безымянный_градиент_797"/>
    <linearGradient id="_Безымянный_градиент_797-18" data-name="Безымянный градиент 797" x1="30.39" y1="149.78" x2="101.9" y2="132.26" xlink:href="#_Безымянный_градиент_797"/>
    <linearGradient id="_Безымянный_градиент_797-19" data-name="Безымянный градиент 797" x1="29.75" y1="147.21" x2="101.27" y2="129.68" xlink:href="#_Безымянный_градиент_797"/>
    <linearGradient id="_Безымянный_градиент_797-20" data-name="Безымянный градиент 797" x1="30.37" y1="149.74" x2="101.89" y2="132.21" xlink:href="#_Безымянный_градиент_797"/>
    <linearGradient id="_Безымянный_градиент_797-21" data-name="Безымянный градиент 797" x1="32.22" y1="157.26" x2="103.73" y2="139.73" xlink:href="#_Безымянный_градиент_797"/>
    <linearGradient id="_Безымянный_градиент_797-22" data-name="Безымянный градиент 797" x1="34.58" y1="166.88" x2="106.09" y2="149.35" xlink:href="#_Безымянный_градиент_797"/>
    <linearGradient id="_Безымянный_градиент_797-23" data-name="Безымянный градиент 797" x1="23.42" y1="199.13" x2="92.9" y2="160.31" xlink:href="#_Безымянный_градиент_797"/>
    <linearGradient id="_Безымянный_градиент_797-24" data-name="Безымянный градиент 797" x1="26.56" y1="204.75" x2="96.04" y2="165.93" xlink:href="#_Безымянный_градиент_797"/>
    <linearGradient id="_Безымянный_градиент_797-25" data-name="Безымянный градиент 797" x1="28.19" y1="207.67" x2="97.67" y2="168.84" xlink:href="#_Безымянный_градиент_797"/>
    <linearGradient id="_Безымянный_градиент_797-26" data-name="Безымянный градиент 797" x1="30.57" y1="211.93" x2="100.05" y2="173.1" xlink:href="#_Безымянный_градиент_797"/>
    <linearGradient id="_Безымянный_градиент_797-27" data-name="Безымянный градиент 797" x1="32.73" y1="215.8" x2="102.22" y2="176.97" xlink:href="#_Безымянный_градиент_797"/>
    <linearGradient id="_Безымянный_градиент_797-28" data-name="Безымянный градиент 797" x1="34.94" y1="219.76" x2="104.43" y2="180.93" xlink:href="#_Безымянный_градиент_797"/>
    <linearGradient id="_Безымянный_градиент_797-29" data-name="Безымянный градиент 797" x1="37.03" y1="223.49" x2="106.51" y2="184.67" xlink:href="#_Безымянный_градиент_797"/>
    <linearGradient id="_Безымянный_градиент_797-30" data-name="Безымянный градиент 797" x1="38.48" y1="226.1" x2="107.97" y2="187.27" xlink:href="#_Безымянный_градиент_797"/>
    <linearGradient id="_Безымянный_градиент_797-31" data-name="Безымянный градиент 797" x1="40.2" y1="229.17" x2="109.69" y2="190.34" xlink:href="#_Безымянный_градиент_797"/>
    <linearGradient id="_Безымянный_градиент_797-32" data-name="Безымянный градиент 797" x1="42.54" y1="233.35" x2="112.02" y2="194.53" xlink:href="#_Безымянный_градиент_797"/>
    <linearGradient id="_Безымянный_градиент_797-33" data-name="Безымянный градиент 797" x1="44.2" y1="236.33" x2="113.69" y2="197.5" xlink:href="#_Безымянный_градиент_797"/>
    <linearGradient id="_Безымянный_градиент_797-34" data-name="Безымянный градиент 797" x1="45.78" y1="239.15" x2="115.26" y2="200.32" xlink:href="#_Безымянный_градиент_797"/>
    <linearGradient id="_Безымянный_градиент_797-35" data-name="Безымянный градиент 797" x1="48.07" y1="243.25" x2="117.56" y2="204.42" xlink:href="#_Безымянный_градиент_797"/>
    <linearGradient id="_Безымянный_градиент_797-36" data-name="Безымянный градиент 797" x1="50.41" y1="247.43" x2="119.89" y2="208.6" xlink:href="#_Безымянный_градиент_797"/>
    <linearGradient id="_Безымянный_градиент_797-37" data-name="Безымянный градиент 797" x1="52.66" y1="251.46" x2="122.14" y2="212.63" xlink:href="#_Безымянный_градиент_797"/>
    <linearGradient id="_Безымянный_градиент_797-38" data-name="Безымянный градиент 797" x1="54.82" y1="255.33" x2="124.3" y2="216.5" xlink:href="#_Безымянный_градиент_797"/>
    <linearGradient id="_Безымянный_градиент_797-39" data-name="Безымянный градиент 797" x1="29.26" y1="209.59" x2="98.74" y2="170.76" xlink:href="#_Безымянный_градиент_797"/>
    <linearGradient id="_Безымянный_градиент_797-40" data-name="Безымянный градиент 797" x1="30.65" y1="212.08" x2="100.13" y2="173.25" xlink:href="#_Безымянный_градиент_797"/>
    <linearGradient id="_Безымянный_градиент_797-41" data-name="Безымянный градиент 797" x1="31.98" y1="214.46" x2="101.46" y2="175.63" xlink:href="#_Безымянный_градиент_797"/>
    <linearGradient id="_Безымянный_градиент_797-42" data-name="Безымянный градиент 797" x1="32.95" y1="216.19" x2="102.43" y2="177.36" xlink:href="#_Безымянный_градиент_797"/>
    <linearGradient id="_Безымянный_градиент_797-43" data-name="Безымянный градиент 797" x1="34.1" y1="218.26" x2="103.59" y2="179.43" xlink:href="#_Безымянный_градиент_797"/>
    <linearGradient id="_Безымянный_градиент_797-44" data-name="Безымянный градиент 797" x1="35.25" y1="220.31" x2="104.74" y2="181.49" xlink:href="#_Безымянный_градиент_797"/>
    <linearGradient id="_Безымянный_градиент_797-45" data-name="Безымянный градиент 797" x1="37.16" y1="223.73" x2="106.65" y2="184.9" xlink:href="#_Безымянный_градиент_797"/>
    <linearGradient id="_Безымянный_градиент_797-46" data-name="Безымянный градиент 797" x1="38.57" y1="226.24" x2="108.05" y2="187.41" xlink:href="#_Безымянный_градиент_797"/>
    <linearGradient id="_Безымянный_градиент_797-47" data-name="Безымянный градиент 797" x1="39.73" y1="228.33" x2="109.21" y2="189.5" xlink:href="#_Безымянный_градиент_797"/>
    <linearGradient id="_Безымянный_градиент_797-48" data-name="Безымянный градиент 797" x1="41.58" y1="231.63" x2="111.06" y2="192.8" xlink:href="#_Безымянный_градиент_797"/>
    <linearGradient id="_Безымянный_градиент_797-49" data-name="Безымянный градиент 797" x1="43.34" y1="234.78" x2="112.82" y2="195.95" xlink:href="#_Безымянный_градиент_797"/>
    <linearGradient id="_Безымянный_градиент_797-50" data-name="Безымянный градиент 797" x1="45.2" y1="238.11" x2="114.68" y2="199.28" xlink:href="#_Безымянный_градиент_797"/>
    <linearGradient id="_Безымянный_градиент_797-51" data-name="Безымянный градиент 797" x1="46.71" y1="240.82" x2="116.19" y2="201.99" xlink:href="#_Безымянный_градиент_797"/>
    <linearGradient id="_Безымянный_градиент_797-52" data-name="Безымянный градиент 797" x1="48.13" y1="243.36" x2="117.62" y2="204.53" xlink:href="#_Безымянный_градиент_797"/>
    <linearGradient id="_Безымянный_градиент_797-53" data-name="Безымянный градиент 797" x1="50.27" y1="247.19" x2="119.76" y2="208.36" xlink:href="#_Безымянный_градиент_797"/>
    <linearGradient id="_Безымянный_градиент_797-54" data-name="Безымянный градиент 797" x1="51.44" y1="249.28" x2="120.92" y2="210.45" xlink:href="#_Безымянный_градиент_797"/>
    <linearGradient id="_Безымянный_градиент_797-55" data-name="Безымянный градиент 797" x1="52.68" y1="251.5" x2="122.17" y2="212.67" xlink:href="#_Безымянный_градиент_797"/>
    <linearGradient id="_Безымянный_градиент_797-56" data-name="Безымянный градиент 797" x1="54.36" y1="254.51" x2="123.84" y2="215.68" xlink:href="#_Безымянный_градиент_797"/>
    <linearGradient id="_Безымянный_градиент_797-57" data-name="Безымянный градиент 797" x1="55.99" y1="257.42" x2="125.47" y2="218.59" xlink:href="#_Безымянный_градиент_797"/>
    <linearGradient id="_Безымянный_градиент_797-58" data-name="Безымянный градиент 797" x1="57.96" y1="260.95" x2="127.45" y2="222.12" xlink:href="#_Безымянный_градиент_797"/>
    <linearGradient id="_Безымянный_градиент_797-59" data-name="Безымянный градиент 797" x1="59.47" y1="263.65" x2="128.96" y2="224.82" xlink:href="#_Безымянный_градиент_797"/>
  </defs>
  <g>
    <path class="cls-59" d="M35.61,14.41c-1.78,4.81-.45,10.42,3.86,14.64,6.01,5.89,12.13,11.67,18.19,17.51,9.42,9.08,18.84,18.15,28.22,27.27,2.88,2.8,3.67,5.57,2.63,8.72-14.22-13.68-28.37-27.29-42.98-41.34-1.18,6.32.48,10.85,4.55,14.73,10.71,10.22,21.34,20.52,32,30.8,2.45,2.36,3.67,5.17,3.15,9.26-10.1-9.68-19.82-19.01-29.91-28.68-1.11,5.71.24,9.98,3.95,13.55,7.45,7.17,14.88,14.37,22.34,21.53,1.55,1.49,3.17,2.91,5.01,4.61,3.17-8.46,6.34-16.35,9.04-24.39,1.72-5.1.39-9.93-3.5-13.69-18.84-18.24-37.76-36.41-56.55-54.51Z"/>
    <path class="cls-6" d="M105.53,48.82c-3.42-3.65-7.19-6.97-10.82-10.43-.26.1-.51.21-.77.31.24,1.54.48,3.08.65,4.21-3.89,1.45-7.71,2.88-11.6,4.34-.99-6.15-5.18-10.5-9.66-14.72-1.95-1.84-3.9-3.7-5.84-5.56-4.12-3.95-8.22-7.94-12.36-11.92-2.41,4.78-1.55,10.21,2.84,14.52,1.4,1.38,2.81,2.75,4.22,4.12,6.79,6.61,13.63,13.18,20.46,19.76,3.97,3.83,7.96,7.64,11.93,11.45.62-2.52.72-4.99,1.84-6.87.97-1.63,2.95-3.32,4.71-3.62,1.33-.23,3.03,1.69,4.67,2.72,1.66-1.69,1.94-5.94-.27-8.3Z"/>
    <path class="cls-4" d="M65.07,91.57c-1.11,5.1-.44,8.75,2.6,11.78,3.01,3,6.15,5.86,9.13,8.89,1.88,1.92,3.23,4.12,1.42,8.07-2.25-2.87-4.15-5.28-6.04-7.7-.28.23-.56.47-.83.7,2.13,5.47,4.25,10.94,6.38,16.41.24,0,.47.01.71.02,1.69-4.7,3.53-9.35,5.02-14.11.89-2.83-.25-5.32-2.31-7.43-5.2-5.33-10.35-10.7-16.08-16.62Z"/>
  </g>
  <g>
    <polygon class="cls-7" points="76.17 153.36 80.04 149.53 85.05 151.16 82.41 146.94 84.57 143.78 79.77 144 76.65 140.92 76.13 144.7 71.29 146.24 75.91 148.26 76.17 153.36"/>
    <polygon class="cls-8" points="68.51 153.14 66.39 150.25 64.97 154.37 60.74 156.49 64.12 158.06 63.93 163.18 67.51 159.41 72.51 160.6 70.24 156.1 73.51 151.98 68.51 153.14"/>
    <polygon class="cls-1" points="59.82 151.45 62.09 147.29 65.93 146.45 63.97 144.45 65.89 141.25 62.66 143.48 61.12 142.94 60.09 145.52 57.55 148.21 59.7 147.87 59.82 151.45"/>
    <polygon class="cls-5" points="73.14 137.66 70.46 137.27 70.13 138.88 66.64 140.91 70.22 140.76 70.96 143.53 73.52 140.43 78.29 140.22 75.28 138.44 76.86 136.59 73.14 137.66"/>
    <polygon class="cls-3" points="57.03 159.55 55.45 157.32 55.42 161.37 54.23 163.57 55.83 164.55 56.88 168.78 57.65 165.15 60.78 165.47 58.54 161.81 59.56 157.34 57.03 159.55"/>
    <polygon class="cls-2" points="67.81 170.6 64.29 172 61.58 168.69 62.06 173.22 60.3 174.53 63.01 176.43 64.62 180.3 65.75 177.71 69.56 178.7 66.61 175 67.81 170.6"/>
    <polygon class="cls-39" points="77.81 166.19 75.37 161.13 73.55 166.58 68.88 167.44 72.45 170.75 72.06 175.96 76.14 173.19 81 175.84 79.45 170.33 83.38 166.43 77.81 166.19"/>
    <polygon class="cls-41" points="89.88 155.46 87.03 150.32 85.54 155.7 79.98 156.6 84.39 160.08 83.7 165.56 88.28 162.37 92.62 164.62 91.33 159.42 94.6 155.63 89.88 155.46"/>
    <polygon class="cls-37" points="86.85 140.57 83.55 141.86 88.15 143.13 90.07 146.99 91.49 144 95.1 145.11 91.98 142.05 91.83 140.04 89.17 140.13 85.52 138.19 86.85 140.57"/>
    <path class="cls-40" d="M98.66,148.75l-2.26.77-3.34-3.15,1.33,4.39-3.09,1.89,4.17,1.48,1.55,5.01s1.17-2.97,1.33-4.17l2.57.65-2.16-3.55-.09-3.31Z"/>
    <path class="cls-42" d="M53.65,158.62l1.04-3.54,1.91-.63-.9-2.21,1.5-3.6-1.99,2.23-.05-.76c-.63,1.12-1.8,4.96-1.8,4.96l.33-.05-.03,3.6Z"/>
    <path class="cls-43" d="M53.68,166.44l-.11-3.57-.76,1.34c.16,2.75.9,4.03.9,4.03l1.09.84-1.12-2.64Z"/>
    <path class="cls-44" d="M57.39,174.26l-.19-2.26-1.06.49-1.55-2.18s1.5,4.69,3.51,6.7l.08-.44,1.63,1.23-2.43-3.54Z"/>
    <path class="cls-38" d="M63.44,180.31l-1.72-.08-2.48-2.18s4.28,4.96,7.03,5.53l-2.67-1.83-.16-1.44Z"/>
    <path class="cls-36" d="M63.54,141.02l-.59-.2,1.21-1.41c-.53.35-1.01.7-1.46,1.07-2.69,2.17-3.94,4.44-3.94,4.44,1.54-2.42,4.78-3.9,4.78-3.9Z"/>
    <path class="cls-35" d="M67.47,138.7c2.44-2.21,5.71-2.44,5.71-2.44-3.35-.32-7.15,2.02-7.15,2.02l1.38-.4.06.83Z"/>
    <path class="cls-22" d="M81.25,136.88l1.49,2.02,1.7-1.53c1.19.02,3.42.64,3.42.64-.4-.47-2.89-1.4-2.89-1.4l.34-.51c-.62-.34-5.41-.85-5.41-.85l.32.74c-1.57.08-2.84.64-2.84.64,1.44-.06,3.88.25,3.88.25Z"/>
    <path class="cls-24" d="M97,144.43l.05-1.08,1.26.98c-.8-1.1-5.61-5.17-5.61-5.17l.82,1.17-.91-.05c2.64.91,4.4,4.14,4.4,4.14Z"/>
    <path class="cls-20" d="M103.76,152.84c-.91-2.76-4.16-6.64-4.16-6.64l1.32,2.49-.87.96c2.87,1.55,3.45,5.07,3.45,5.07.07-.98-.11-2.19-.11-2.19l.37.3Z"/>
  </g>
  <g>
    <path class="cls-26" d="M12.56,204.48v-.28c0-2.89,1.88-5,4.91-5s4.93,2.11,4.93,5v.28c0,2.89-1.88,5-4.93,5s-4.91-2.11-4.91-5ZM14.68,198.33v-2.15h2.21v2.15h-2.21ZM19.96,204.48v-.28c0-1.87-.88-3.06-2.49-3.06s-2.47,1.19-2.47,3.06v.28c0,1.87.89,3.06,2.47,3.06s2.49-1.19,2.49-3.06ZM18.09,198.33v-2.15h2.21v2.15h-2.21Z"/>
    <path class="cls-28" d="M22.98,206.06h2.33c.14,1.05.89,1.58,2.07,1.58,1.05,0,1.66-.39,1.66-1.06v-.06c0-.67-.45-.96-2.32-1.3-2.39-.43-3.41-1.33-3.41-2.96v-.1c0-1.81,1.62-2.96,3.85-2.96s3.88,1.13,4.05,3.21h-2.33c-.1-.94-.73-1.38-1.76-1.38s-1.48.45-1.48,1.03v.04c0,.57.28.89,2.16,1.2,2.28.38,3.57,1.23,3.57,2.95v.11c0,1.93-1.7,3.11-4.06,3.11-2.62,0-4.2-1.28-4.34-3.42Z"/>
    <path class="cls-27" d="M34.33,209.3v-8h-2.74v-1.91h7.82v1.91h-2.72v8h-2.36Z"/>
    <path class="cls-23" d="M40.43,209.3v-9.91h7.32v1.91h-5v2.02h4.48v1.86h-4.48v2.21h5.11v1.91h-7.43Z"/>
    <path class="cls-25" d="M49,209.3v-9.91h4.5c2.11,0,3.69,1.12,3.69,3.21v.14c0,1.51-.8,2.5-2.04,2.95l2.33,3.62h-2.58l-2.07-3.35h-1.49v3.35h-2.33ZM51.33,204.04h1.91c.89,0,1.51-.39,1.51-1.3v-.14c0-.91-.61-1.3-1.51-1.3h-1.91v2.74Z"/>
    <path class="cls-21" d="M58.29,209.3v-9.91h4.5c2.11,0,3.69,1.12,3.69,3.21v.14c0,1.51-.8,2.5-2.04,2.95l2.33,3.62h-2.58l-2.07-3.35h-1.49v3.35h-2.33ZM60.62,204.04h1.91c.89,0,1.51-.39,1.51-1.3v-.14c0-.91-.61-1.3-1.51-1.3h-1.91v2.74Z"/>
    <path class="cls-14" d="M67.59,209.3v-9.91h7.32v1.91h-5v2.02h4.48v1.86h-4.48v2.21h5.11v1.91h-7.43Z"/>
    <path class="cls-12" d="M76.23,209.3v-9.91h2.37v9.91h-2.37Z"/>
    <path class="cls-9" d="M79.79,204.48v-.28c0-2.92,1.93-5,4.89-5,2.57,0,4.27,1.61,4.41,4.02h-2.37c-.1-1.33-.88-2.08-2.08-2.08-1.55,0-2.4,1.23-2.4,3.06v.28c0,1.83.87,3.04,2.42,3.04,1.2,0,2-.78,2.05-2.16h2.37c-.12,2.47-1.77,4.12-4.41,4.12-3.02,0-4.87-2.08-4.87-5Z"/>
    <path class="cls-10" d="M90.11,209.3v-9.91h2.36v3.87h3.96v-3.87h2.36v9.91h-2.36v-4.12h-3.96v4.12h-2.36Z"/>
    <path class="cls-13" d="M100.26,209.3v-9.91h2.37v9.91h-2.37Z"/>
    <path class="cls-16" d="M103.75,206.06h2.33c.14,1.05.89,1.58,2.07,1.58,1.05,0,1.66-.39,1.66-1.06v-.06c0-.67-.45-.96-2.32-1.3-2.39-.43-3.41-1.33-3.41-2.96v-.1c0-1.81,1.62-2.96,3.85-2.96s3.88,1.13,4.05,3.21h-2.33c-.1-.94-.73-1.38-1.76-1.38s-1.48.45-1.48,1.03v.04c0,.57.28.89,2.16,1.2,2.28.38,3.57,1.23,3.57,2.95v.11c0,1.93-1.7,3.11-4.06,3.11-2.62,0-4.2-1.28-4.34-3.42Z"/>
    <path class="cls-11" d="M112.85,204.48v-.28c0-2.92,1.93-5,4.89-5,2.57,0,4.27,1.61,4.41,4.02h-2.37c-.1-1.33-.88-2.08-2.08-2.08-1.55,0-2.4,1.23-2.4,3.06v.28c0,1.83.87,3.04,2.42,3.04,1.2,0,2-.78,2.05-2.16h2.37c-.12,2.47-1.77,4.12-4.41,4.12-3.02,0-4.87-2.08-4.87-5Z"/>
    <path class="cls-18" d="M123.18,209.3v-9.91h2.36v3.87h3.96v-3.87h2.36v9.91h-2.36v-4.12h-3.96v4.12h-2.36Z"/>
    <path class="cls-15" d="M133.25,209.3v-9.91h7.32v1.91h-5v2.02h4.48v1.86h-4.48v2.21h5.11v1.91h-7.43Z"/>
    <path class="cls-19" d="M141.82,209.3v-9.91h4.5c2.11,0,3.69,1.12,3.69,3.21v.14c0,1.51-.8,2.5-2.04,2.95l2.33,3.62h-2.58l-2.07-3.35h-1.49v3.35h-2.33ZM144.15,204.04h1.91c.89,0,1.51-.39,1.51-1.3v-.14c0-.91-.61-1.3-1.51-1.3h-1.91v2.74Z"/>
  </g>
  <g>
    <path class="cls-17" d="M14.44,220.23v-7.82h.46v4.53l4.36-4.53h.62l-3.26,3.36,3.37,4.46h-.57l-3.13-4.13-1.39,1.43v2.7h-.46Z"/>
    <path class="cls-58" d="M21,220.23v-7.82h.46v7.4h3.67v.42h-4.13Z"/>
    <path class="cls-30" d="M26.22,220.23v-7.82h4.84v.42h-4.37v3.18h3.99v.42h-3.99v3.38h4.4v.42h-4.86Z"/>
    <path class="cls-32" d="M32.5,220.23v-7.82h.46v7.82h-.46Z"/>
    <path class="cls-31" d="M34.69,220.23v-7.82h.53l4.78,7.09v-7.09h.46v7.82h-.51l-4.8-7.14v7.14h-.46Z"/>
    <path class="cls-29" d="M42.17,220.23v-7.82h4.55v.42h-4.09v3.21h3.67v.42h-3.67v3.78h-.46Z"/>
    <path class="cls-56" d="M48,220.23v-7.82h4.84v.42h-4.37v3.18h3.99v.42h-3.99v3.38h4.4v.42h-4.86Z"/>
    <path class="cls-55" d="M54.26,220.23v-7.82h.46v7.4h3.67v.42h-4.13Z"/>
    <path class="cls-33" d="M59.48,220.23v-7.82h2.34c2.16,0,3.65,1.31,3.65,3.74v.35c0,2.41-1.48,3.73-3.65,3.73h-2.34ZM59.95,219.81h1.8c2.03,0,3.24-1.17,3.24-3.32v-.35c0-2.15-1.2-3.32-3.24-3.32h-1.8v6.98Z"/>
    <path class="cls-57" d="M68.75,220.23v-7.82h4.55v.42h-4.09v3.21h3.67v.42h-3.67v3.78h-.46Z"/>
    <path class="cls-34" d="M74.35,217.35v-4.95h.46v4.92c0,1.73.9,2.59,2.42,2.59s2.42-.87,2.42-2.6v-4.91h.46v4.95c0,1.85-.99,3.01-2.89,3.01s-2.89-1.16-2.89-3.01Z"/>
    <path class="cls-52" d="M81.25,217.9h.49c.12,1.43,1.17,2.03,2.46,2.03s2.25-.63,2.25-1.7v-.1c0-1.06-.96-1.46-2.39-1.69-1.64-.26-2.5-.83-2.5-1.99v-.11c0-1.15,1.01-2.07,2.51-2.07,1.42,0,2.5.74,2.7,2.19h-.49c-.18-1.17-1.01-1.76-2.21-1.76s-2.05.66-2.05,1.64v.1c0,.98.81,1.36,2.16,1.58,1.63.28,2.73.78,2.73,2.09v.11c0,1.26-1.1,2.14-2.73,2.14s-2.83-.83-2.92-2.46Z"/>
    <path class="cls-47" d="M87.61,217.9h.49c.12,1.43,1.17,2.03,2.46,2.03s2.25-.63,2.25-1.7v-.1c0-1.06-.96-1.46-2.39-1.69-1.64-.26-2.5-.83-2.5-1.99v-.11c0-1.15,1.01-2.07,2.51-2.07,1.42,0,2.5.74,2.7,2.19h-.48c-.18-1.17-1.01-1.76-2.21-1.76s-2.05.66-2.05,1.64v.1c0,.98.81,1.36,2.16,1.58,1.63.28,2.73.78,2.73,2.09v.11c0,1.26-1.1,2.14-2.73,2.14s-2.83-.83-2.92-2.46Z"/>
    <path class="cls-48" d="M94.56,220.23v-7.82h2.77c1.39,0,2.37.57,2.37,1.91v.12c0,.96-.65,1.44-1.19,1.64.85.2,1.56.85,1.56,1.92v.14c0,1.33-.99,2.09-2.45,2.09h-3.06ZM95.03,215.92h2.36c1.1,0,1.84-.51,1.84-1.49v-.12c0-1-.69-1.49-1.88-1.49h-2.31v3.1ZM95.03,219.81h2.64c1.13,0,1.94-.59,1.94-1.67v-.14c0-1.08-.78-1.66-2-1.66h-2.58v3.48Z"/>
    <path class="cls-45" d="M106.84,220.23l-.98-2.47h-3.8l-.98,2.47h-.47l3.12-7.82h.5l3.11,7.82h-.48ZM102.23,217.34h3.47l-1.73-4.37-1.74,4.37Z"/>
    <path class="cls-46" d="M108.36,220.23v-7.82h.46v7.4h3.67v.42h-4.13Z"/>
    <path class="cls-53" d="M113.58,220.23v-7.82h.46v7.4h3.67v.42h-4.13Z"/>
    <path class="cls-54" d="M120.74,220.23v-7.82h2.77c1.39,0,2.37.57,2.37,1.91v.12c0,.96-.65,1.44-1.19,1.64.85.2,1.56.85,1.56,1.92v.14c0,1.33-.99,2.09-2.45,2.09h-3.06ZM121.2,215.92h2.36c1.1,0,1.84-.51,1.84-1.49v-.12c0-1-.69-1.49-1.88-1.49h-2.31v3.1ZM121.2,219.81h2.64c1.13,0,1.94-.59,1.94-1.67v-.14c0-1.08-.78-1.66-2-1.66h-2.58v3.48Z"/>
    <path class="cls-50" d="M127.51,217.35v-4.95h.46v4.92c0,1.73.9,2.59,2.42,2.59s2.42-.87,2.42-2.6v-4.91h.46v4.95c0,1.85-.99,3.01-2.89,3.01s-2.89-1.16-2.89-3.01Z"/>
    <path class="cls-51" d="M134.95,220.23v-7.82h.53l4.78,7.09v-7.09h.46v7.82h-.51l-4.8-7.14v7.14h-.46Z"/>
    <path class="cls-49" d="M142.44,220.23v-7.82h2.34c2.16,0,3.65,1.31,3.65,3.74v.35c0,2.41-1.48,3.73-3.65,3.73h-2.34ZM142.9,219.81h1.8c2.03,0,3.24-1.17,3.24-3.32v-.35c0-2.15-1.2-3.32-3.24-3.32h-1.8v6.98Z"/>
  </g>
</svg>